<svg width="179" height="35" viewBox="0 0 179 35" fill="none" xmlns="http://www.w3.org/2000/svg">
<path d="M6.14062 19.2871H7.26562C7.20703 19.8262 7.05273 20.3086 6.80273 20.7344C6.55273 21.1602 6.19922 21.498 5.74219 21.748C5.28516 21.9941 4.71484 22.1172 4.03125 22.1172C3.53125 22.1172 3.07617 22.0234 2.66602 21.8359C2.25977 21.6484 1.91016 21.3828 1.61719 21.0391C1.32422 20.6914 1.09766 20.2754 0.9375 19.791C0.78125 19.3027 0.703125 18.7598 0.703125 18.1621V17.3125C0.703125 16.7148 0.78125 16.1738 0.9375 15.6895C1.09766 15.2012 1.32617 14.7832 1.62305 14.4355C1.92383 14.0879 2.28516 13.8203 2.70703 13.6328C3.12891 13.4453 3.60352 13.3516 4.13086 13.3516C4.77539 13.3516 5.32031 13.4727 5.76562 13.7148C6.21094 13.957 6.55664 14.293 6.80273 14.7227C7.05273 15.1484 7.20703 15.6426 7.26562 16.2051H6.14062C6.08594 15.8066 5.98438 15.4648 5.83594 15.1797C5.6875 14.8906 5.47656 14.668 5.20312 14.5117C4.92969 14.3555 4.57227 14.2773 4.13086 14.2773C3.75195 14.2773 3.41797 14.3496 3.12891 14.4941C2.84375 14.6387 2.60352 14.8438 2.4082 15.1094C2.2168 15.375 2.07227 15.6934 1.97461 16.0645C1.87695 16.4355 1.82812 16.8477 1.82812 17.3008V18.1621C1.82812 18.5801 1.87109 18.9727 1.95703 19.3398C2.04688 19.707 2.18164 20.0293 2.36133 20.3066C2.54102 20.584 2.76953 20.8027 3.04688 20.9629C3.32422 21.1191 3.65234 21.1973 4.03125 21.1973C4.51172 21.1973 4.89453 21.1211 5.17969 20.9688C5.46484 20.8164 5.67969 20.5977 5.82422 20.3125C5.97266 20.0273 6.07812 19.6855 6.14062 19.2871ZM9.16406 13.4688H10.2598L13.0547 20.4238L15.8438 13.4688H16.9453L13.4766 22H12.6211L9.16406 13.4688ZM8.80664 13.4688H9.77344L9.93164 18.6719V22H8.80664V13.4688ZM16.3301 13.4688H17.2969V22H16.1719V18.6719L16.3301 13.4688ZM25.8516 17.4648V18.0039C25.8516 18.6445 25.7715 19.2188 25.6113 19.7266C25.4512 20.2344 25.2207 20.666 24.9199 21.0215C24.6191 21.377 24.2578 21.6484 23.8359 21.8359C23.418 22.0234 22.9492 22.1172 22.4297 22.1172C21.9258 22.1172 21.4629 22.0234 21.041 21.8359C20.623 21.6484 20.2598 21.377 19.9512 21.0215C19.6465 20.666 19.4102 20.2344 19.2422 19.7266C19.0742 19.2188 18.9902 18.6445 18.9902 18.0039V17.4648C18.9902 16.8242 19.0723 16.252 19.2363 15.748C19.4043 15.2402 19.6406 14.8086 19.9453 14.4531C20.25 14.0938 20.6113 13.8203 21.0293 13.6328C21.4512 13.4453 21.9141 13.3516 22.418 13.3516C22.9375 13.3516 23.4062 13.4453 23.8242 13.6328C24.2461 13.8203 24.6074 14.0938 24.9082 14.4531C25.2129 14.8086 25.4453 15.2402 25.6055 15.748C25.7695 16.252 25.8516 16.8242 25.8516 17.4648ZM24.7324 18.0039V17.4531C24.7324 16.9453 24.6797 16.4961 24.5742 16.1055C24.4727 15.7148 24.3223 15.3867 24.123 15.1211C23.9238 14.8555 23.6797 14.6543 23.3906 14.5176C23.1055 14.3809 22.7812 14.3125 22.418 14.3125C22.0664 14.3125 21.748 14.3809 21.4629 14.5176C21.1816 14.6543 20.9395 14.8555 20.7363 15.1211C20.5371 15.3867 20.3828 15.7148 20.2734 16.1055C20.1641 16.4961 20.1094 16.9453 20.1094 17.4531V18.0039C20.1094 18.5156 20.1641 18.9688 20.2734 19.3633C20.3828 19.7539 20.5391 20.084 20.7422 20.3535C20.9492 20.6191 21.1934 20.8203 21.4746 20.957C21.7598 21.0938 22.0781 21.1621 22.4297 21.1621C22.7969 21.1621 23.123 21.0938 23.4082 20.957C23.6934 20.8203 23.9336 20.6191 24.1289 20.3535C24.3281 20.084 24.4785 19.7539 24.5801 19.3633C24.6816 18.9688 24.7324 18.5156 24.7324 18.0039ZM30.5332 13.4688V22H29.4199V13.4688H30.5332ZM33.2754 13.4688V14.3945H26.6836V13.4688H33.2754ZM37.6875 18.6543H35.4082V17.7344H37.6875C38.1289 17.7344 38.4863 17.6641 38.7598 17.5234C39.0332 17.3828 39.2324 17.1875 39.3574 16.9375C39.4863 16.6875 39.5508 16.4023 39.5508 16.082C39.5508 15.7891 39.4863 15.5137 39.3574 15.2559C39.2324 14.998 39.0332 14.791 38.7598 14.6348C38.4863 14.4746 38.1289 14.3945 37.6875 14.3945H35.6719V22H34.541V13.4688H37.6875C38.332 13.4688 38.877 13.5801 39.3223 13.8027C39.7676 14.0254 40.1055 14.334 40.3359 14.7285C40.5664 15.1191 40.6816 15.5664 40.6816 16.0703C40.6816 16.6172 40.5664 17.084 40.3359 17.4707C40.1055 17.8574 39.7676 18.1523 39.3223 18.3555C38.877 18.5547 38.332 18.6543 37.6875 18.6543ZM47.5312 21.0801V22H43.0137V21.0801H47.5312ZM43.2422 13.4688V22H42.1113V13.4688H43.2422ZM46.9336 17.1367V18.0566H43.0137V17.1367H46.9336ZM47.4727 13.4688V14.3945H43.0137V13.4688H47.4727ZM52.2012 13.4688V22H51.0879V13.4688H52.2012ZM54.9434 13.4688V14.3945H48.3516V13.4688H54.9434ZM57.1289 16.9434H59.4551C60.0801 16.9434 60.6074 17.0488 61.0371 17.2598C61.4668 17.4668 61.793 17.7578 62.0156 18.1328C62.2383 18.5078 62.3496 18.9473 62.3496 19.4512C62.3496 19.8262 62.2871 20.1699 62.1621 20.4824C62.0371 20.791 61.8516 21.0605 61.6055 21.291C61.3594 21.5176 61.0566 21.6934 60.6973 21.8184C60.3379 21.9395 59.9238 22 59.4551 22H56.2676V13.4688H57.3984V21.0801H59.4551C59.873 21.0801 60.2109 21.0039 60.4688 20.8516C60.7305 20.6953 60.9219 20.4922 61.043 20.2422C61.1641 19.9922 61.2246 19.7246 61.2246 19.4395C61.2246 19.1543 61.1641 18.8926 61.043 18.6543C60.9219 18.416 60.7305 18.2266 60.4688 18.0859C60.2109 17.9414 59.873 17.8691 59.4551 17.8691H57.1289V16.9434Z" fill="#332E4C"/>
<rect x="92" y="17.4141" width="2" height="2" transform="rotate(-45 92 17.4141)" fill="#332E4C"/>
<rect x="97" y="17.4141" width="2" height="2" transform="rotate(-45 97 17.4141)" fill="#332E4C"/>
<path d="M126.177 17.1768C126.274 17.0791 126.274 16.9209 126.177 16.8232L124.586 15.2322C124.488 15.1346 124.33 15.1346 124.232 15.2322C124.135 15.3299 124.135 15.4882 124.232 15.5858L125.646 17L124.232 18.4142C124.135 18.5118 124.135 18.6701 124.232 18.7678C124.33 18.8654 124.488 18.8654 124.586 18.7678L126.177 17.1768ZM105 17.25H126V16.75H105V17.25Z" fill="#332E4C"/>
</svg>
