<svg width="127" height="35" viewBox="0 0 127 35" fill="none" xmlns="http://www.w3.org/2000/svg">
<path d="M8.484 13.6V22H7.608V14.368H2.292V22H1.416V13.6H8.484ZM15.0023 22.072C14.1703 22.072 13.4143 21.888 12.7343 21.52C12.0623 21.144 11.5343 20.632 11.1503 19.984C10.7743 19.336 10.5863 18.608 10.5863 17.8C10.5863 16.992 10.7743 16.264 11.1503 15.616C11.5343 14.968 12.0623 14.46 12.7343 14.092C13.4143 13.716 14.1703 13.528 15.0023 13.528C15.8343 13.528 16.5823 13.712 17.2463 14.08C17.9183 14.448 18.4463 14.96 18.8303 15.616C19.2143 16.264 19.4063 16.992 19.4063 17.8C19.4063 18.608 19.2143 19.34 18.8303 19.996C18.4463 20.644 17.9183 21.152 17.2463 21.52C16.5823 21.888 15.8343 22.072 15.0023 22.072ZM15.0023 21.28C15.6663 21.28 16.2663 21.132 16.8023 20.836C17.3383 20.532 17.7583 20.116 18.0623 19.588C18.3663 19.052 18.5183 18.456 18.5183 17.8C18.5183 17.144 18.3663 16.552 18.0623 16.024C17.7583 15.488 17.3383 15.072 16.8023 14.776C16.2663 14.472 15.6663 14.32 15.0023 14.32C14.3383 14.32 13.7343 14.472 13.1903 14.776C12.6543 15.072 12.2303 15.488 11.9183 16.024C11.6143 16.552 11.4623 17.144 11.4623 17.8C11.4623 18.456 11.6143 19.052 11.9183 19.588C12.2303 20.116 12.6543 20.532 13.1903 20.836C13.7343 21.132 14.3383 21.28 15.0023 21.28ZM29.007 21.232V23.884H28.179V22H20.847L20.835 23.884H20.007L20.019 21.232H20.439C20.991 21.2 21.375 20.764 21.591 19.924C21.807 19.076 21.939 17.876 21.987 16.324L22.083 13.6H27.747V21.232H29.007ZM22.779 16.408C22.739 17.688 22.639 18.744 22.479 19.576C22.327 20.4 22.067 20.952 21.699 21.232H26.871V14.368H22.851L22.779 16.408ZM33.9623 13.6C35.0343 13.6 35.8743 13.856 36.4823 14.368C37.0903 14.88 37.3943 15.584 37.3943 16.48C37.3943 17.376 37.0903 18.08 36.4823 18.592C35.8743 19.096 35.0343 19.348 33.9623 19.348H31.7063V22H30.8183V13.6H33.9623ZM33.9383 18.568C34.7703 18.568 35.4063 18.388 35.8463 18.028C36.2863 17.66 36.5063 17.144 36.5063 16.48C36.5063 15.8 36.2863 15.28 35.8463 14.92C35.4063 14.552 34.7703 14.368 33.9383 14.368H31.7063V18.568H33.9383ZM43.0219 22.072C42.1899 22.072 41.4339 21.888 40.7539 21.52C40.0819 21.144 39.5539 20.632 39.1699 19.984C38.7939 19.336 38.6059 18.608 38.6059 17.8C38.6059 16.992 38.7939 16.264 39.1699 15.616C39.5539 14.968 40.0819 14.46 40.7539 14.092C41.4339 13.716 42.1899 13.528 43.0219 13.528C43.8539 13.528 44.6019 13.712 45.2659 14.08C45.9379 14.448 46.4659 14.96 46.8499 15.616C47.2339 16.264 47.4259 16.992 47.4259 17.8C47.4259 18.608 47.2339 19.34 46.8499 19.996C46.4659 20.644 45.9379 21.152 45.2659 21.52C44.6019 21.888 43.8539 22.072 43.0219 22.072ZM43.0219 21.28C43.6859 21.28 44.2859 21.132 44.8219 20.836C45.3579 20.532 45.7779 20.116 46.0819 19.588C46.3859 19.052 46.5379 18.456 46.5379 17.8C46.5379 17.144 46.3859 16.552 46.0819 16.024C45.7779 15.488 45.3579 15.072 44.8219 14.776C44.2859 14.472 43.6859 14.32 43.0219 14.32C42.3579 14.32 41.7539 14.472 41.2099 14.776C40.6739 15.072 40.2499 15.488 39.9379 16.024C39.6339 16.552 39.4819 17.144 39.4819 17.8C39.4819 18.456 39.6339 19.052 39.9379 19.588C40.2499 20.116 40.6739 20.532 41.2099 20.836C41.7539 21.132 42.3579 21.28 43.0219 21.28ZM49.5449 13.6H55.6889V14.356H50.4209V17.104H53.1689C54.1609 17.104 54.9129 17.308 55.4249 17.716C55.9449 18.124 56.2049 18.716 56.2049 19.492C56.2049 20.3 55.9249 20.92 55.3649 21.352C54.8129 21.784 54.0169 22 52.9769 22H49.5449V13.6ZM52.9649 21.292C53.7409 21.292 54.3249 21.144 54.7169 20.848C55.1169 20.552 55.3169 20.112 55.3169 19.528C55.3169 18.952 55.1209 18.524 54.7289 18.244C54.3449 17.956 53.7569 17.812 52.9649 17.812H50.4209V21.292H52.9649ZM65.2837 13.6V22H64.4077V18.124H59.1517V22H58.2637V13.6H59.1517V17.344H64.4077V13.6H65.2837ZM74.0591 21.232V22H68.1191V13.6H73.8791V14.368H69.0071V17.356H73.3511V18.112H69.0071V21.232H74.0591ZM81.9693 21.232V22H76.0293V13.6H81.7893V14.368H76.9173V17.356H81.2613V18.112H76.9173V21.232H81.9693Z" fill="#1F1F1F"/>
<rect x="92" y="17.4141" width="2" height="2" transform="rotate(-45 92 17.4141)" fill="#1F1F1F"/>
<rect x="97" y="17.4141" width="2" height="2" transform="rotate(-45 97 17.4141)" fill="#1F1F1F"/>
<path d="M126.177 17.1768C126.274 17.0791 126.274 16.9209 126.177 16.8232L124.586 15.2322C124.488 15.1346 124.33 15.1346 124.232 15.2322C124.135 15.3299 124.135 15.4882 124.232 15.5858L125.646 17L124.232 18.4142C124.135 18.5118 124.135 18.6701 124.232 18.7678C124.33 18.8654 124.488 18.8654 124.586 18.7678L126.177 17.1768ZM105 17.25H126V16.75H105V17.25Z" fill="#1F1F1F"/>
</svg>
