<svg width="170" height="35" viewBox="0 0 170 35" preserveAspectRatio="none" fill="none" xmlns="http://www.w3.org/2000/svg">
<rect x="0.5" y="0.5" width="169" height="34" fill="white" stroke="#332E4C"/>
<path d="M44.7539 22V13.4688H47.543C48.4688 13.4688 49.1641 13.6602 49.6289 14.043C50.0977 14.4258 50.332 14.9922 50.332 15.7422C50.332 16.1406 50.2188 16.4941 49.9922 16.8027C49.7656 17.1074 49.457 17.3438 49.0664 17.5117C49.5273 17.6406 49.8906 17.8867 50.1562 18.25C50.4258 18.6094 50.5605 19.0391 50.5605 19.5391C50.5605 20.3047 50.3125 20.9062 49.8164 21.3438C49.3203 21.7812 48.6191 22 47.7129 22H44.7539ZM45.8789 18.0098V21.0801H47.7363C48.2598 21.0801 48.6719 20.9453 48.9727 20.6758C49.2773 20.4023 49.4297 20.0273 49.4297 19.5508C49.4297 18.5234 48.8711 18.0098 47.7539 18.0098H45.8789ZM45.8789 17.1074H47.5781C48.0703 17.1074 48.4629 16.9844 48.7559 16.7383C49.0527 16.4922 49.2012 16.1582 49.2012 15.7363C49.2012 15.2676 49.0645 14.9277 48.791 14.7168C48.5176 14.502 48.1016 14.3945 47.543 14.3945H45.8789V17.1074ZM52.2305 22V13.4688H55.0195C55.9453 13.4688 56.6406 13.6602 57.1055 14.043C57.5742 14.4258 57.8086 14.9922 57.8086 15.7422C57.8086 16.1406 57.6953 16.4941 57.4688 16.8027C57.2422 17.1074 56.9336 17.3438 56.543 17.5117C57.0039 17.6406 57.3672 17.8867 57.6328 18.25C57.9023 18.6094 58.0371 19.0391 58.0371 19.5391C58.0371 20.3047 57.7891 20.9062 57.293 21.3438C56.7969 21.7812 56.0957 22 55.1895 22H52.2305ZM53.3555 18.0098V21.0801H55.2129C55.7363 21.0801 56.1484 20.9453 56.4492 20.6758C56.7539 20.4023 56.9062 20.0273 56.9062 19.5508C56.9062 18.5234 56.3477 18.0098 55.2305 18.0098H53.3555ZM53.3555 17.1074H55.0547C55.5469 17.1074 55.9395 16.9844 56.2324 16.7383C56.5293 16.4922 56.6777 16.1582 56.6777 15.7363C56.6777 15.2676 56.541 14.9277 56.2676 14.7168C55.9941 14.502 55.5781 14.3945 55.0195 14.3945H53.3555V17.1074ZM66.2695 18.0098C66.2695 18.8457 66.1289 19.5762 65.8477 20.2012C65.5664 20.8223 65.168 21.2969 64.6523 21.625C64.1367 21.9531 63.5352 22.1172 62.8477 22.1172C62.1758 22.1172 61.5801 21.9531 61.0605 21.625C60.541 21.293 60.1367 20.8223 59.8477 20.2129C59.5625 19.5996 59.416 18.8906 59.4082 18.0859V17.4707C59.4082 16.6504 59.5508 15.9258 59.8359 15.2969C60.1211 14.668 60.5234 14.1875 61.043 13.8555C61.5664 13.5195 62.1641 13.3516 62.8359 13.3516C63.5195 13.3516 64.1211 13.5176 64.6406 13.8496C65.1641 14.1777 65.5664 14.6562 65.8477 15.2852C66.1289 15.9102 66.2695 16.6387 66.2695 17.4707V18.0098ZM65.1504 17.459C65.1504 16.4473 64.9473 15.6719 64.541 15.1328C64.1348 14.5898 63.5664 14.3184 62.8359 14.3184C62.125 14.3184 61.5645 14.5898 61.1543 15.1328C60.748 15.6719 60.5391 16.4219 60.5273 17.3828V18.0098C60.5273 18.9902 60.7324 19.7617 61.1426 20.3242C61.5566 20.8828 62.125 21.1621 62.8477 21.1621C63.5742 21.1621 64.1367 20.8984 64.5352 20.3711C64.9336 19.8398 65.1387 19.0801 65.1504 18.0918V17.459ZM73.3359 13.4688H74.4609V22H73.3359V15.4258L69.1348 22H68.0039V13.4688H69.1348V20.043L73.3359 13.4688ZM73.0195 11.3477C73.0195 11.8203 72.8574 12.2012 72.5332 12.4902C72.2129 12.7754 71.791 12.918 71.2676 12.918C70.7441 12.918 70.3203 12.7734 69.9961 12.4844C69.6719 12.1953 69.5098 11.8164 69.5098 11.3477H70.3945C70.3945 11.6211 70.4688 11.8359 70.6172 11.9922C70.7656 12.1445 70.9824 12.2207 71.2676 12.2207C71.541 12.2207 71.7539 12.1445 71.9062 11.9922C72.0625 11.8398 72.1406 11.625 72.1406 11.3477H73.0195ZM82.4062 14.3945H79.6641V22H78.5449V14.3945H75.8086V13.4688H82.4062V14.3945ZM89.0508 13.4688H90.1758V22H89.0508V15.4258L84.8496 22H83.7188V13.4688H84.8496V20.043L89.0508 13.4688Z" fill="black"/>
<rect x="135" width="35" height="35" fill="#332E4C"/>
<path d="M164.354 18.3536C164.549 18.1583 164.549 17.8417 164.354 17.6464L161.172 14.4645C160.976 14.2692 160.66 14.2692 160.464 14.4645C160.269 14.6597 160.269 14.9763 160.464 15.1716L163.293 18L160.464 20.8284C160.269 21.0237 160.269 21.3403 160.464 21.5355C160.66 21.7308 160.976 21.7308 161.172 21.5355L164.354 18.3536ZM144 18.5H164V17.5H144V18.5Z" fill="white"/>
</svg>
