<svg width="242" height="35" viewBox="0 0 242 35" fill="none" xmlns="http://www.w3.org/2000/svg">
<rect x="155" y="17.4141" width="2" height="2" transform="rotate(-45 155 17.4141)" fill="#1F1F1F"/>
<rect x="160" y="17.4141" width="2" height="2" transform="rotate(-45 160 17.4141)" fill="#1F1F1F"/>
<path d="M189.177 17.1768C189.274 17.0791 189.274 16.9209 189.177 16.8232L187.586 15.2322C187.488 15.1346 187.33 15.1346 187.232 15.2322C187.135 15.3299 187.135 15.4882 187.232 15.5858L188.646 17L187.232 18.4142C187.135 18.5118 187.135 18.6701 187.232 18.7678C187.33 18.8654 187.488 18.8654 187.586 18.7678L189.177 17.1768ZM168 17.25H189V16.75H168V17.25Z" fill="#1F1F1F"/>
<path d="M5.36719 15.7598C5.36719 15.3066 5.20117 14.9473 4.86914 14.6816C4.54102 14.4121 4.07812 14.2773 3.48047 14.2773C2.98047 14.2773 2.56055 14.416 2.2207 14.6934C1.88477 14.9668 1.7168 15.3066 1.7168 15.7129H0.591797C0.591797 15.2598 0.714844 14.8535 0.960938 14.4941C1.21094 14.1348 1.55859 13.8555 2.00391 13.6562C2.44922 13.4531 2.94141 13.3516 3.48047 13.3516C4.43359 13.3516 5.17383 13.5664 5.70117 13.9961C6.22852 14.4219 6.49219 15.0156 6.49219 15.7773C6.49219 16.1719 6.37109 16.5312 6.12891 16.8555C5.88672 17.1797 5.54883 17.4355 5.11523 17.623C6.11914 17.959 6.62109 18.625 6.62109 19.6211C6.62109 20.3867 6.33594 20.9941 5.76562 21.4434C5.19531 21.8926 4.43359 22.1172 3.48047 22.1172C2.91406 22.1172 2.39844 22.0176 1.93359 21.8184C1.47266 21.6152 1.11328 21.3281 0.855469 20.957C0.597656 20.5859 0.46875 20.1445 0.46875 19.6328H1.59375C1.59375 20.082 1.77148 20.457 2.12695 20.7578C2.48242 21.0547 2.93359 21.2031 3.48047 21.2031C4.09375 21.2031 4.58203 21.0605 4.94531 20.7754C5.3125 20.4902 5.49609 20.1133 5.49609 19.6445C5.49609 18.6445 4.87695 18.1348 3.63867 18.1152H2.58398V17.1895H3.63281C4.20312 17.1777 4.63477 17.0488 4.92773 16.8027C5.2207 16.5566 5.36719 16.209 5.36719 15.7598ZM12.8262 19.7734H9.25195L8.44922 22H7.28906L10.5469 13.4688H11.5312L14.7949 22H13.6406L12.8262 19.7734ZM9.5918 18.8477H12.4922L11.0391 14.8574L9.5918 18.8477ZM17.0684 18.6602V22H15.9434V13.4688H19.0898C20.0234 13.4688 20.7539 13.707 21.2812 14.1836C21.8125 14.6602 22.0781 15.291 22.0781 16.0762C22.0781 16.9043 21.8184 17.543 21.2988 17.9922C20.7832 18.4375 20.043 18.6602 19.0781 18.6602H17.0684ZM17.0684 17.7402H19.0898C19.6914 17.7402 20.1523 17.5996 20.4727 17.3184C20.793 17.0332 20.9531 16.623 20.9531 16.0879C20.9531 15.5801 20.793 15.1738 20.4727 14.8691C20.1523 14.5645 19.7129 14.4062 19.1543 14.3945H17.0684V17.7402ZM28.3359 18.0566H24.6387V21.0801H28.9336V22H23.5137V13.4688H28.875V14.3945H24.6387V17.1367H28.3359V18.0566ZM35.625 14.3945H31.5117V22H30.3809V13.4688H35.625V14.3945ZM42.3926 13.4688H43.5176V22H42.3926V15.4258L38.1914 22H37.0605V13.4688H38.1914V20.043L42.3926 13.4688ZM51.8438 19.293C51.7383 20.1953 51.4043 20.8926 50.8418 21.3848C50.2832 21.873 49.5391 22.1172 48.6094 22.1172C47.6016 22.1172 46.793 21.7559 46.1836 21.0332C45.5781 20.3105 45.2754 19.3438 45.2754 18.1328V17.3125C45.2754 16.5195 45.416 15.8223 45.6973 15.2207C45.9824 14.6191 46.3848 14.1582 46.9043 13.8379C47.4238 13.5137 48.0254 13.3516 48.709 13.3516C49.6152 13.3516 50.3418 13.6055 50.8887 14.1133C51.4355 14.6172 51.7539 15.3164 51.8438 16.2109H50.7129C50.6152 15.5312 50.4023 15.0391 50.0742 14.7344C49.75 14.4297 49.2949 14.2773 48.709 14.2773C47.9902 14.2773 47.4258 14.543 47.0156 15.0742C46.6094 15.6055 46.4062 16.3613 46.4062 17.3418V18.168C46.4062 19.0938 46.5996 19.8301 46.9863 20.377C47.373 20.9238 47.9141 21.1973 48.6094 21.1973C49.2344 21.1973 49.7129 21.0566 50.0449 20.7754C50.3809 20.4902 50.6035 19.9961 50.7129 19.293H51.8438ZM59.1035 14.3945H56.3613V22H55.2422V14.3945H52.5059V13.4688H59.1035V14.3945ZM61.4941 18.6602V22H60.3691V13.4688H63.5156C64.4492 13.4688 65.1797 13.707 65.707 14.1836C66.2383 14.6602 66.5039 15.291 66.5039 16.0762C66.5039 16.9043 66.2441 17.543 65.7246 17.9922C65.209 18.4375 64.4688 18.6602 63.5039 18.6602H61.4941ZM61.4941 17.7402H63.5156C64.1172 17.7402 64.5781 17.5996 64.8984 17.3184C65.2188 17.0332 65.3789 16.623 65.3789 16.0879C65.3789 15.5801 65.2188 15.1738 64.8984 14.8691C64.5781 14.5645 64.1387 14.4062 63.5801 14.3945H61.4941V17.7402ZM73.3184 13.4688H74.4434V22H73.3184V15.4258L69.1172 22H67.9863V13.4688H69.1172V20.043L73.3184 13.4688ZM77.6191 18.6602V22H76.4941V13.4688H79.6406C80.5742 13.4688 81.3047 13.707 81.832 14.1836C82.3633 14.6602 82.6289 15.291 82.6289 16.0762C82.6289 16.9043 82.3691 17.543 81.8496 17.9922C81.334 18.4375 80.5938 18.6602 79.6289 18.6602H77.6191ZM77.6191 17.7402H79.6406C80.2422 17.7402 80.7031 17.5996 81.0234 17.3184C81.3438 17.0332 81.5039 16.623 81.5039 16.0879C81.5039 15.5801 81.3438 15.1738 81.0234 14.8691C80.7031 14.5645 80.2637 14.4062 79.7051 14.3945H77.6191V17.7402ZM90.627 18.0098C90.627 18.8457 90.4863 19.5762 90.2051 20.2012C89.9238 20.8223 89.5254 21.2969 89.0098 21.625C88.4941 21.9531 87.8926 22.1172 87.2051 22.1172C86.5332 22.1172 85.9375 21.9531 85.418 21.625C84.8984 21.293 84.4941 20.8223 84.2051 20.2129C83.9199 19.5996 83.7734 18.8906 83.7656 18.0859V17.4707C83.7656 16.6504 83.9082 15.9258 84.1934 15.2969C84.4785 14.668 84.8809 14.1875 85.4004 13.8555C85.9238 13.5195 86.5215 13.3516 87.1934 13.3516C87.877 13.3516 88.4785 13.5176 88.998 13.8496C89.5215 14.1777 89.9238 14.6562 90.2051 15.2852C90.4863 15.9102 90.627 16.6387 90.627 17.4707V18.0098ZM89.5078 17.459C89.5078 16.4473 89.3047 15.6719 88.8984 15.1328C88.4922 14.5898 87.9238 14.3184 87.1934 14.3184C86.4824 14.3184 85.9219 14.5898 85.5117 15.1328C85.1055 15.6719 84.8965 16.4219 84.8848 17.3828V18.0098C84.8848 18.9902 85.0898 19.7617 85.5 20.3242C85.9141 20.8828 86.4824 21.1621 87.2051 21.1621C87.9316 21.1621 88.4941 20.8984 88.8926 20.3711C89.291 19.8398 89.4961 19.0801 89.5078 18.0918V17.459ZM92.3145 22V13.4688H95.1035C96.0293 13.4688 96.7246 13.6602 97.1895 14.043C97.6582 14.4258 97.8926 14.9922 97.8926 15.7422C97.8926 16.1406 97.7793 16.4941 97.5527 16.8027C97.3262 17.1074 97.0176 17.3438 96.627 17.5117C97.0879 17.6406 97.4512 17.8867 97.7168 18.25C97.9863 18.6094 98.1211 19.0391 98.1211 19.5391C98.1211 20.3047 97.873 20.9062 97.377 21.3438C96.8809 21.7812 96.1797 22 95.2734 22H92.3145ZM93.4395 18.0098V21.0801H95.2969C95.8203 21.0801 96.2324 20.9453 96.5332 20.6758C96.8379 20.4023 96.9902 20.0273 96.9902 19.5508C96.9902 18.5234 96.4316 18.0098 95.3145 18.0098H93.4395ZM93.4395 17.1074H95.1387C95.6309 17.1074 96.0234 16.9844 96.3164 16.7383C96.6133 16.4922 96.7617 16.1582 96.7617 15.7363C96.7617 15.2676 96.625 14.9277 96.3516 14.7168C96.0781 14.502 95.6621 14.3945 95.1035 14.3945H93.4395V17.1074ZM104.502 19.7734H100.928L100.125 22H98.9648L102.223 13.4688H103.207L106.471 22H105.316L104.502 19.7734ZM101.268 18.8477H104.168L102.715 14.8574L101.268 18.8477ZM112.752 14.3945H110.01V22H108.891V14.3945H106.154V13.4688H112.752V14.3945ZM115.201 16.9492H117.322C118.213 16.9609 118.908 17.1895 119.408 17.6348C119.908 18.0801 120.158 18.6855 120.158 19.4512C120.158 20.2207 119.906 20.834 119.402 21.291C118.898 21.748 118.211 21.9844 117.34 22H114.076V13.4688H115.201V16.9492ZM115.201 17.875V21.0801H117.258C117.816 21.0801 118.25 20.9316 118.559 20.6348C118.871 20.3379 119.027 19.9395 119.027 19.4395C119.027 18.959 118.877 18.5801 118.576 18.3027C118.279 18.0254 117.855 17.8828 117.305 17.875H115.201ZM127.922 19.293C127.816 20.1953 127.482 20.8926 126.92 21.3848C126.361 21.873 125.617 22.1172 124.688 22.1172C123.68 22.1172 122.871 21.7559 122.262 21.0332C121.656 20.3105 121.354 19.3438 121.354 18.1328V17.3125C121.354 16.5195 121.494 15.8223 121.775 15.2207C122.061 14.6191 122.463 14.1582 122.982 13.8379C123.502 13.5137 124.104 13.3516 124.787 13.3516C125.693 13.3516 126.42 13.6055 126.967 14.1133C127.514 14.6172 127.832 15.3164 127.922 16.2109H126.791C126.693 15.5312 126.48 15.0391 126.152 14.7344C125.828 14.4297 125.373 14.2773 124.787 14.2773C124.068 14.2773 123.504 14.543 123.094 15.0742C122.688 15.6055 122.484 16.3613 122.484 17.3418V18.168C122.484 19.0938 122.678 19.8301 123.064 20.377C123.451 20.9238 123.992 21.1973 124.688 21.1973C125.312 21.1973 125.791 21.0566 126.123 20.7754C126.459 20.4902 126.682 19.9961 126.791 19.293H127.922ZM133.928 22V18.6777H131.959L130.195 22H128.994L130.975 18.3672C129.873 17.9336 129.322 17.1582 129.322 16.041C129.322 15.2285 129.588 14.5977 130.119 14.1484C130.654 13.6953 131.396 13.4688 132.346 13.4688H135.059V22H133.928ZM130.447 16.041C130.447 16.5566 130.607 16.9707 130.928 17.2832C131.252 17.5957 131.701 17.7539 132.275 17.7578H133.928V14.3945H132.328C131.719 14.3945 131.252 14.5391 130.928 14.8281C130.607 15.1172 130.447 15.5215 130.447 16.041Z" fill="black"/>
</svg>
