<svg width="231" height="35" viewBox="0 0 231 35" fill="none" xmlns="http://www.w3.org/2000/svg">
<rect x="196" width="35" height="35" fill="#1F1F1F"/>
<path d="M35.0293 17.9043H34.0156V17.1836H34.9883C35.418 17.1836 35.7656 17.123 36.0312 17.002C36.2969 16.8809 36.4902 16.7129 36.6113 16.498C36.7324 16.2832 36.793 16.0352 36.793 15.7539C36.793 15.4844 36.7266 15.2383 36.5938 15.0156C36.4609 14.7891 36.2559 14.6094 35.9785 14.4766C35.7012 14.3398 35.3438 14.2715 34.9062 14.2715C34.5781 14.2715 34.2812 14.334 34.0156 14.459C33.75 14.5801 33.5391 14.75 33.3828 14.9688C33.2266 15.1836 33.1484 15.4316 33.1484 15.7129H32.0176C32.0176 15.3496 32.0938 15.0234 32.2461 14.7344C32.3984 14.4414 32.6074 14.1934 32.873 13.9902C33.1387 13.7832 33.4453 13.625 33.793 13.5156C34.1445 13.4062 34.5156 13.3516 34.9062 13.3516C35.3633 13.3516 35.7773 13.4043 36.1484 13.5098C36.5195 13.6113 36.8379 13.7637 37.1035 13.9668C37.3691 14.1699 37.5723 14.4219 37.7129 14.7227C37.8535 15.0234 37.9238 15.373 37.9238 15.7715C37.9238 16.0645 37.8555 16.3398 37.7188 16.5977C37.582 16.8555 37.3867 17.082 37.1328 17.2773C36.8789 17.4727 36.5742 17.627 36.2188 17.7402C35.8633 17.8496 35.4668 17.9043 35.0293 17.9043ZM34.0156 17.4062H35.0293C35.5098 17.4062 35.9375 17.4551 36.3125 17.5527C36.6875 17.6504 37.0039 17.793 37.2617 17.9805C37.5195 18.168 37.7148 18.4004 37.8477 18.6777C37.9844 18.9512 38.0527 19.2656 38.0527 19.6211C38.0527 20.0195 37.9746 20.373 37.8184 20.6816C37.666 20.9902 37.4492 21.252 37.168 21.4668C36.8867 21.6816 36.5527 21.8438 36.166 21.9531C35.7832 22.0625 35.3633 22.1172 34.9062 22.1172C34.5391 22.1172 34.1758 22.0703 33.8164 21.9766C33.4609 21.8789 33.1387 21.7305 32.8496 21.5312C32.5605 21.3281 32.3281 21.0703 32.1523 20.7578C31.9805 20.4453 31.8945 20.0703 31.8945 19.6328H33.0254C33.0254 19.918 33.1035 20.1797 33.2598 20.418C33.4199 20.6562 33.6406 20.8477 33.9219 20.9922C34.2031 21.1328 34.5312 21.2031 34.9062 21.2031C35.3359 21.2031 35.6992 21.1367 35.9961 21.0039C36.2969 20.8672 36.5254 20.6816 36.6816 20.4473C36.8418 20.209 36.9219 19.9414 36.9219 19.6445C36.9219 19.3828 36.8789 19.1562 36.793 18.9648C36.7109 18.7695 36.5879 18.6094 36.4238 18.4844C36.2637 18.3594 36.0625 18.2676 35.8203 18.209C35.582 18.1465 35.3047 18.1152 34.9883 18.1152H34.0156V17.4062ZM42.6992 14.2246L39.875 22H38.7207L41.9727 13.4688H42.7168L42.6992 14.2246ZM45.0664 22L42.2363 14.2246L42.2188 13.4688H42.9629L46.2266 22H45.0664ZM44.9199 18.8418V19.7676H40.127V18.8418H44.9199ZM50.5156 18.6543H48.2363V17.7344H50.5156C50.957 17.7344 51.3145 17.6641 51.5879 17.5234C51.8613 17.3828 52.0605 17.1875 52.1855 16.9375C52.3145 16.6875 52.3789 16.4023 52.3789 16.082C52.3789 15.7891 52.3145 15.5137 52.1855 15.2559C52.0605 14.998 51.8613 14.791 51.5879 14.6348C51.3145 14.4746 50.957 14.3945 50.5156 14.3945H48.5V22H47.3691V13.4688H50.5156C51.1602 13.4688 51.7051 13.5801 52.1504 13.8027C52.5957 14.0254 52.9336 14.334 53.1641 14.7285C53.3945 15.1191 53.5098 15.5664 53.5098 16.0703C53.5098 16.6172 53.3945 17.084 53.1641 17.4707C52.9336 17.8574 52.5957 18.1523 52.1504 18.3555C51.7051 18.5547 51.1602 18.6543 50.5156 18.6543ZM60.3594 21.0801V22H55.8418V21.0801H60.3594ZM56.0703 13.4688V22H54.9395V13.4688H56.0703ZM59.7617 17.1367V18.0566H55.8418V17.1367H59.7617ZM60.3008 13.4688V14.3945H55.8418V13.4688H60.3008ZM67.0508 13.4688V14.3945H62.9375V22H61.8125V13.4688H67.0508ZM69.6172 20.043L73.8184 13.4688H74.9492V22H73.8184V15.4199L69.6172 22H68.4922V13.4688H69.6172V20.043ZM82.1562 19.2871H83.2812C83.2227 19.8262 83.0684 20.3086 82.8184 20.7344C82.5684 21.1602 82.2148 21.498 81.7578 21.748C81.3008 21.9941 80.7305 22.1172 80.0469 22.1172C79.5469 22.1172 79.0918 22.0234 78.6816 21.8359C78.2754 21.6484 77.9258 21.3828 77.6328 21.0391C77.3398 20.6914 77.1133 20.2754 76.9531 19.791C76.7969 19.3027 76.7188 18.7598 76.7188 18.1621V17.3125C76.7188 16.7148 76.7969 16.1738 76.9531 15.6895C77.1133 15.2012 77.3418 14.7832 77.6387 14.4355C77.9395 14.0879 78.3008 13.8203 78.7227 13.6328C79.1445 13.4453 79.6191 13.3516 80.1465 13.3516C80.791 13.3516 81.3359 13.4727 81.7812 13.7148C82.2266 13.957 82.5723 14.293 82.8184 14.7227C83.0684 15.1484 83.2227 15.6426 83.2812 16.2051H82.1562C82.1016 15.8066 82 15.4648 81.8516 15.1797C81.7031 14.8906 81.4922 14.668 81.2188 14.5117C80.9453 14.3555 80.5879 14.2773 80.1465 14.2773C79.7676 14.2773 79.4336 14.3496 79.1445 14.4941C78.8594 14.6387 78.6191 14.8438 78.4238 15.1094C78.2324 15.375 78.0879 15.6934 77.9902 16.0645C77.8926 16.4355 77.8438 16.8477 77.8438 17.3008V18.1621C77.8438 18.5801 77.8867 18.9727 77.9727 19.3398C78.0625 19.707 78.1973 20.0293 78.377 20.3066C78.5566 20.584 78.7852 20.8027 79.0625 20.9629C79.3398 21.1191 79.668 21.1973 80.0469 21.1973C80.5273 21.1973 80.9102 21.1211 81.1953 20.9688C81.4805 20.8164 81.6953 20.5977 81.8398 20.3125C81.9883 20.0273 82.0938 19.6855 82.1562 19.2871ZM87.7988 13.4688V22H86.6855V13.4688H87.7988ZM90.541 13.4688V14.3945H83.9492V13.4688H90.541ZM94.9531 18.6543H92.6738V17.7344H94.9531C95.3945 17.7344 95.752 17.6641 96.0254 17.5234C96.2988 17.3828 96.498 17.1875 96.623 16.9375C96.752 16.6875 96.8164 16.4023 96.8164 16.082C96.8164 15.7891 96.752 15.5137 96.623 15.2559C96.498 14.998 96.2988 14.791 96.0254 14.6348C95.752 14.4746 95.3945 14.3945 94.9531 14.3945H92.9375V22H91.8066V13.4688H94.9531C95.5977 13.4688 96.1426 13.5801 96.5879 13.8027C97.0332 14.0254 97.3711 14.334 97.6016 14.7285C97.832 15.1191 97.9473 15.5664 97.9473 16.0703C97.9473 16.6172 97.832 17.084 97.6016 17.4707C97.3711 17.8574 97.0332 18.1523 96.5879 18.3555C96.1426 18.5547 95.5977 18.6543 94.9531 18.6543ZM100.555 20.043L104.756 13.4688H105.887V22H104.756V15.4199L100.555 22H99.4297V13.4688H100.555V20.043ZM111.09 18.6543H108.811V17.7344H111.09C111.531 17.7344 111.889 17.6641 112.162 17.5234C112.436 17.3828 112.635 17.1875 112.76 16.9375C112.889 16.6875 112.953 16.4023 112.953 16.082C112.953 15.7891 112.889 15.5137 112.76 15.2559C112.635 14.998 112.436 14.791 112.162 14.6348C111.889 14.4746 111.531 14.3945 111.09 14.3945H109.074V22H107.943V13.4688H111.09C111.734 13.4688 112.279 13.5801 112.725 13.8027C113.17 14.0254 113.508 14.334 113.738 14.7285C113.969 15.1191 114.084 15.5664 114.084 16.0703C114.084 16.6172 113.969 17.084 113.738 17.4707C113.508 17.8574 113.17 18.1523 112.725 18.3555C112.279 18.5547 111.734 18.6543 111.09 18.6543ZM122.082 17.4648V18.0039C122.082 18.6445 122.002 19.2188 121.842 19.7266C121.682 20.2344 121.451 20.666 121.15 21.0215C120.85 21.377 120.488 21.6484 120.066 21.8359C119.648 22.0234 119.18 22.1172 118.66 22.1172C118.156 22.1172 117.693 22.0234 117.271 21.8359C116.854 21.6484 116.49 21.377 116.182 21.0215C115.877 20.666 115.641 20.2344 115.473 19.7266C115.305 19.2188 115.221 18.6445 115.221 18.0039V17.4648C115.221 16.8242 115.303 16.252 115.467 15.748C115.635 15.2402 115.871 14.8086 116.176 14.4531C116.48 14.0938 116.842 13.8203 117.26 13.6328C117.682 13.4453 118.145 13.3516 118.648 13.3516C119.168 13.3516 119.637 13.4453 120.055 13.6328C120.477 13.8203 120.838 14.0938 121.139 14.4531C121.443 14.8086 121.676 15.2402 121.836 15.748C122 16.252 122.082 16.8242 122.082 17.4648ZM120.963 18.0039V17.4531C120.963 16.9453 120.91 16.4961 120.805 16.1055C120.703 15.7148 120.553 15.3867 120.354 15.1211C120.154 14.8555 119.91 14.6543 119.621 14.5176C119.336 14.3809 119.012 14.3125 118.648 14.3125C118.297 14.3125 117.979 14.3809 117.693 14.5176C117.412 14.6543 117.17 14.8555 116.967 15.1211C116.768 15.3867 116.613 15.7148 116.504 16.1055C116.395 16.4961 116.34 16.9453 116.34 17.4531V18.0039C116.34 18.5156 116.395 18.9688 116.504 19.3633C116.613 19.7539 116.77 20.084 116.973 20.3535C117.18 20.6191 117.424 20.8203 117.705 20.957C117.99 21.0938 118.309 21.1621 118.66 21.1621C119.027 21.1621 119.354 21.0938 119.639 20.957C119.924 20.8203 120.164 20.6191 120.359 20.3535C120.559 20.084 120.709 19.7539 120.811 19.3633C120.912 18.9688 120.963 18.5156 120.963 18.0039ZM126.816 18.0098H124.654L124.643 17.1016H126.605C126.93 17.1016 127.213 17.0469 127.455 16.9375C127.697 16.8281 127.885 16.6719 128.018 16.4688C128.154 16.2617 128.223 16.0156 128.223 15.7305C128.223 15.418 128.162 15.1641 128.041 14.9688C127.924 14.7695 127.742 14.625 127.496 14.5352C127.254 14.4414 126.945 14.3945 126.57 14.3945H124.906V22H123.775V13.4688H126.57C127.008 13.4688 127.398 13.5137 127.742 13.6035C128.086 13.6895 128.377 13.8262 128.615 14.0137C128.857 14.1973 129.041 14.4316 129.166 14.7168C129.291 15.002 129.354 15.3438 129.354 15.7422C129.354 16.0938 129.264 16.4121 129.084 16.6973C128.904 16.9785 128.654 17.209 128.334 17.3887C128.018 17.5684 127.646 17.6836 127.221 17.7344L126.816 18.0098ZM126.764 22H124.209L124.848 21.0801H126.764C127.123 21.0801 127.428 21.0176 127.678 20.8926C127.932 20.7676 128.125 20.5918 128.258 20.3652C128.391 20.1348 128.457 19.8633 128.457 19.5508C128.457 19.2344 128.4 18.9609 128.287 18.7305C128.174 18.5 127.996 18.3223 127.754 18.1973C127.512 18.0723 127.199 18.0098 126.816 18.0098H125.205L125.217 17.1016H127.42L127.66 17.4297C128.07 17.4648 128.418 17.582 128.703 17.7812C128.988 17.9766 129.205 18.2266 129.354 18.5312C129.506 18.8359 129.582 19.1719 129.582 19.5391C129.582 20.0703 129.465 20.5195 129.23 20.8867C129 21.25 128.674 21.5273 128.252 21.7188C127.83 21.9062 127.334 22 126.764 22ZM134.41 14.2246L131.586 22H130.432L133.684 13.4688H134.428L134.41 14.2246ZM136.777 22L133.947 14.2246L133.93 13.4688H134.674L137.938 22H136.777ZM136.631 18.8418V19.7676H131.838V18.8418H136.631ZM141.471 13.4688V22H140.357V13.4688H141.471ZM144.213 13.4688V14.3945H137.621V13.4688H144.213ZM146.398 16.9434H148.725C149.35 16.9434 149.877 17.0488 150.307 17.2598C150.736 17.4668 151.062 17.7578 151.285 18.1328C151.508 18.5078 151.619 18.9473 151.619 19.4512C151.619 19.8262 151.557 20.1699 151.432 20.4824C151.307 20.791 151.121 21.0605 150.875 21.291C150.629 21.5176 150.326 21.6934 149.967 21.8184C149.607 21.9395 149.193 22 148.725 22H145.537V13.4688H146.668V21.0801H148.725C149.143 21.0801 149.48 21.0039 149.738 20.8516C150 20.6953 150.191 20.4922 150.312 20.2422C150.434 19.9922 150.494 19.7246 150.494 19.4395C150.494 19.1543 150.434 18.8926 150.312 18.6543C150.191 18.416 150 18.2266 149.738 18.0859C149.48 17.9414 149.143 17.8691 148.725 17.8691H146.398V16.9434ZM158.258 19.2871H159.383C159.324 19.8262 159.17 20.3086 158.92 20.7344C158.67 21.1602 158.316 21.498 157.859 21.748C157.402 21.9941 156.832 22.1172 156.148 22.1172C155.648 22.1172 155.193 22.0234 154.783 21.8359C154.377 21.6484 154.027 21.3828 153.734 21.0391C153.441 20.6914 153.215 20.2754 153.055 19.791C152.898 19.3027 152.82 18.7598 152.82 18.1621V17.3125C152.82 16.7148 152.898 16.1738 153.055 15.6895C153.215 15.2012 153.443 14.7832 153.74 14.4355C154.041 14.0879 154.402 13.8203 154.824 13.6328C155.246 13.4453 155.721 13.3516 156.248 13.3516C156.893 13.3516 157.438 13.4727 157.883 13.7148C158.328 13.957 158.674 14.293 158.92 14.7227C159.17 15.1484 159.324 15.6426 159.383 16.2051H158.258C158.203 15.8066 158.102 15.4648 157.953 15.1797C157.805 14.8906 157.594 14.668 157.32 14.5117C157.047 14.3555 156.689 14.2773 156.248 14.2773C155.869 14.2773 155.535 14.3496 155.246 14.4941C154.961 14.6387 154.721 14.8438 154.525 15.1094C154.334 15.375 154.189 15.6934 154.092 16.0645C153.994 16.4355 153.945 16.8477 153.945 17.3008V18.1621C153.945 18.5801 153.988 18.9727 154.074 19.3398C154.164 19.707 154.299 20.0293 154.479 20.3066C154.658 20.584 154.887 20.8027 155.164 20.9629C155.441 21.1191 155.77 21.1973 156.148 21.1973C156.629 21.1973 157.012 21.1211 157.297 20.9688C157.582 20.8164 157.797 20.5977 157.941 20.3125C158.09 20.0273 158.195 19.6855 158.258 19.2871ZM165.658 18.6777H163.262L162.705 18.4492C162.088 18.2539 161.613 17.9551 161.281 17.5527C160.949 17.1465 160.783 16.6426 160.783 16.041C160.783 15.4902 160.904 15.0234 161.146 14.6406C161.393 14.2578 161.74 13.9668 162.189 13.7676C162.643 13.5684 163.178 13.4688 163.795 13.4688H166.525V22H165.395V14.3945H163.795C163.17 14.3945 162.699 14.543 162.383 14.8398C162.07 15.1367 161.914 15.5371 161.914 16.041C161.914 16.3691 161.982 16.6621 162.119 16.9199C162.26 17.1777 162.467 17.3809 162.74 17.5293C163.014 17.6777 163.354 17.752 163.76 17.752H165.664L165.658 18.6777ZM163.736 18.0918L161.662 22H160.461L162.594 18.0918H163.736Z" fill="black"/>
<rect x="0.5" y="0.5" width="230" height="34" stroke="#1F1F1F"/>
</svg>
