<svg width="225" height="35" viewBox="0 0 225 35" fill="none" xmlns="http://www.w3.org/2000/svg">
<rect x="138" y="17.4141" width="2" height="2" transform="rotate(-45 138 17.4141)" fill="#1F1F1F"/>
<rect x="143" y="17.4141" width="2" height="2" transform="rotate(-45 143 17.4141)" fill="#1F1F1F"/>
<path d="M172.177 17.1768C172.274 17.0791 172.274 16.9209 172.177 16.8232L170.586 15.2322C170.488 15.1346 170.33 15.1346 170.232 15.2322C170.135 15.3299 170.135 15.4882 170.232 15.5858L171.646 17L170.232 18.4142C170.135 18.5118 170.135 18.6701 170.232 18.7678C170.33 18.8654 170.488 18.8654 170.586 18.7678L172.177 17.1768ZM151 17.25H172V16.75H151V17.25Z" fill="#1F1F1F"/>
<path d="M6.5625 16.1367V17.0566H1.94531V16.1367H6.5625ZM2.12109 12.4688V21H0.990234V12.4688H2.12109ZM7.54688 12.4688V21H6.42188V12.4688H7.54688ZM12.8203 13.2246L9.99609 21H8.8418L12.0938 12.4688H12.8379L12.8203 13.2246ZM15.1875 21L12.3574 13.2246L12.3398 12.4688H13.084L16.3477 21H15.1875ZM15.041 17.8418V18.7676H10.248V17.8418H15.041ZM24.0059 12.4688V21H22.8809V13.3945H18.6738V21H17.543V12.4688H24.0059ZM32.625 16.4648V17.0039C32.625 17.6445 32.5449 18.2188 32.3848 18.7266C32.2246 19.2344 31.9941 19.666 31.6934 20.0215C31.3926 20.377 31.0312 20.6484 30.6094 20.8359C30.1914 21.0234 29.7227 21.1172 29.2031 21.1172C28.6992 21.1172 28.2363 21.0234 27.8145 20.8359C27.3965 20.6484 27.0332 20.377 26.7246 20.0215C26.4199 19.666 26.1836 19.2344 26.0156 18.7266C25.8477 18.2188 25.7637 17.6445 25.7637 17.0039V16.4648C25.7637 15.8242 25.8457 15.252 26.0098 14.748C26.1777 14.2402 26.4141 13.8086 26.7188 13.4531C27.0234 13.0938 27.3848 12.8203 27.8027 12.6328C28.2246 12.4453 28.6875 12.3516 29.1914 12.3516C29.7109 12.3516 30.1797 12.4453 30.5977 12.6328C31.0195 12.8203 31.3809 13.0938 31.6816 13.4531C31.9863 13.8086 32.2188 14.2402 32.3789 14.748C32.543 15.252 32.625 15.8242 32.625 16.4648ZM31.5059 17.0039V16.4531C31.5059 15.9453 31.4531 15.4961 31.3477 15.1055C31.2461 14.7148 31.0957 14.3867 30.8965 14.1211C30.6973 13.8555 30.4531 13.6543 30.1641 13.5176C29.8789 13.3809 29.5547 13.3125 29.1914 13.3125C28.8398 13.3125 28.5215 13.3809 28.2363 13.5176C27.9551 13.6543 27.7129 13.8555 27.5098 14.1211C27.3105 14.3867 27.1562 14.7148 27.0469 15.1055C26.9375 15.4961 26.8828 15.9453 26.8828 16.4531V17.0039C26.8828 17.5156 26.9375 17.9688 27.0469 18.3633C27.1562 18.7539 27.3125 19.084 27.5156 19.3535C27.7227 19.6191 27.9668 19.8203 28.248 19.957C28.5332 20.0938 28.8516 20.1621 29.2031 20.1621C29.5703 20.1621 29.8965 20.0938 30.1816 19.957C30.4668 19.8203 30.707 19.6191 30.9023 19.3535C31.1016 19.084 31.252 18.7539 31.3535 18.3633C31.4551 17.9688 31.5059 17.5156 31.5059 17.0039ZM34.6758 12.4688H35.7715L38.5664 19.4238L41.3555 12.4688H42.457L38.9883 21H38.1328L34.6758 12.4688ZM34.3184 12.4688H35.2852L35.4434 17.6719V21H34.3184V12.4688ZM41.8418 12.4688H42.8086V21H41.6836V17.6719L41.8418 12.4688ZM50.3672 16.1367V17.0566H45.75V16.1367H50.3672ZM45.9258 12.4688V21H44.7949V12.4688H45.9258ZM51.3516 12.4688V21H50.2266V12.4688H51.3516ZM54.5391 19.043L58.7402 12.4688H59.8711V21H58.7402V14.4199L54.5391 21H53.4141V12.4688H54.5391V19.043ZM64.9043 12.4688V21H63.791V12.4688H64.9043ZM67.6465 12.4688V13.3945H61.0547V12.4688H67.6465ZM69.832 15.9434H72.1582C72.7832 15.9434 73.3105 16.0488 73.7402 16.2598C74.1699 16.4668 74.4961 16.7578 74.7188 17.1328C74.9414 17.5078 75.0527 17.9473 75.0527 18.4512C75.0527 18.8262 74.9902 19.1699 74.8652 19.4824C74.7402 19.791 74.5547 20.0605 74.3086 20.291C74.0625 20.5176 73.7598 20.6934 73.4004 20.8184C73.041 20.9395 72.627 21 72.1582 21H68.9707V12.4688H70.1016V20.0801H72.1582C72.5762 20.0801 72.9141 20.0039 73.1719 19.8516C73.4336 19.6953 73.625 19.4922 73.7461 19.2422C73.8672 18.9922 73.9277 18.7246 73.9277 18.4395C73.9277 18.1543 73.8672 17.8926 73.7461 17.6543C73.625 17.416 73.4336 17.2266 73.1719 17.0859C72.9141 16.9414 72.5762 16.8691 72.1582 16.8691H69.832V15.9434ZM86.0332 12.4688V21H84.9082V13.3945H80.7012V21H79.5703V12.4688H86.0332ZM91.2422 13.2246L88.418 21H87.2637L90.5156 12.4688H91.2598L91.2422 13.2246ZM93.6094 21L90.7793 13.2246L90.7617 12.4688H91.5059L94.7695 21H93.6094ZM93.4629 17.8418V18.7676H88.6699V17.8418H93.4629ZM99.0586 17.6543H96.7793V16.7344H99.0586C99.5 16.7344 99.8574 16.6641 100.131 16.5234C100.404 16.3828 100.604 16.1875 100.729 15.9375C100.857 15.6875 100.922 15.4023 100.922 15.082C100.922 14.7891 100.857 14.5137 100.729 14.2559C100.604 13.998 100.404 13.791 100.131 13.6348C99.8574 13.4746 99.5 13.3945 99.0586 13.3945H97.043V21H95.9121V12.4688H99.0586C99.7031 12.4688 100.248 12.5801 100.693 12.8027C101.139 13.0254 101.477 13.334 101.707 13.7285C101.938 14.1191 102.053 14.5664 102.053 15.0703C102.053 15.6172 101.938 16.084 101.707 16.4707C101.477 16.8574 101.139 17.1523 100.693 17.3555C100.248 17.5547 99.7031 17.6543 99.0586 17.6543ZM110.051 16.4648V17.0039C110.051 17.6445 109.971 18.2188 109.811 18.7266C109.65 19.2344 109.42 19.666 109.119 20.0215C108.818 20.377 108.457 20.6484 108.035 20.8359C107.617 21.0234 107.148 21.1172 106.629 21.1172C106.125 21.1172 105.662 21.0234 105.24 20.8359C104.822 20.6484 104.459 20.377 104.15 20.0215C103.846 19.666 103.609 19.2344 103.441 18.7266C103.273 18.2188 103.189 17.6445 103.189 17.0039V16.4648C103.189 15.8242 103.271 15.252 103.436 14.748C103.604 14.2402 103.84 13.8086 104.145 13.4531C104.449 13.0938 104.811 12.8203 105.229 12.6328C105.65 12.4453 106.113 12.3516 106.617 12.3516C107.137 12.3516 107.605 12.4453 108.023 12.6328C108.445 12.8203 108.807 13.0938 109.107 13.4531C109.412 13.8086 109.645 14.2402 109.805 14.748C109.969 15.252 110.051 15.8242 110.051 16.4648ZM108.932 17.0039V16.4531C108.932 15.9453 108.879 15.4961 108.773 15.1055C108.672 14.7148 108.521 14.3867 108.322 14.1211C108.123 13.8555 107.879 13.6543 107.59 13.5176C107.305 13.3809 106.98 13.3125 106.617 13.3125C106.266 13.3125 105.947 13.3809 105.662 13.5176C105.381 13.6543 105.139 13.8555 104.936 14.1211C104.736 14.3867 104.582 14.7148 104.473 15.1055C104.363 15.4961 104.309 15.9453 104.309 16.4531V17.0039C104.309 17.5156 104.363 17.9688 104.473 18.3633C104.582 18.7539 104.738 19.084 104.941 19.3535C105.148 19.6191 105.393 19.8203 105.674 19.957C105.959 20.0938 106.277 20.1621 106.629 20.1621C106.996 20.1621 107.322 20.0938 107.607 19.957C107.893 19.8203 108.133 19.6191 108.328 19.3535C108.527 19.084 108.678 18.7539 108.779 18.3633C108.881 17.9688 108.932 17.5156 108.932 17.0039ZM117.041 12.4688V13.3945H113.139V12.4688H117.041ZM118.014 12.4688V21H116.883V12.4688H118.014ZM112.752 12.4688H113.877L113.684 16.6465C113.656 17.248 113.609 17.7852 113.543 18.2578C113.48 18.7266 113.391 19.1348 113.273 19.4824C113.156 19.8262 113.004 20.1113 112.816 20.3379C112.629 20.5605 112.398 20.7266 112.125 20.8359C111.855 20.9453 111.531 21 111.152 21H110.848V20.0801L111.082 20.0625C111.301 20.0469 111.488 19.998 111.645 19.916C111.805 19.8301 111.939 19.7012 112.049 19.5293C112.162 19.3574 112.254 19.1348 112.324 18.8613C112.395 18.5879 112.449 18.2539 112.488 17.8594C112.531 17.4609 112.564 16.9961 112.588 16.4648L112.752 12.4688ZM120.879 15.9434H123.205C123.83 15.9434 124.357 16.0488 124.787 16.2598C125.217 16.4668 125.543 16.7578 125.766 17.1328C125.988 17.5078 126.1 17.9473 126.1 18.4512C126.1 18.8262 126.037 19.1699 125.912 19.4824C125.787 19.791 125.602 20.0605 125.355 20.291C125.109 20.5176 124.807 20.6934 124.447 20.8184C124.088 20.9395 123.674 21 123.205 21H120.018V12.4688H121.148V20.0801H123.205C123.623 20.0801 123.961 20.0039 124.219 19.8516C124.48 19.6953 124.672 19.4922 124.793 19.2422C124.914 18.9922 124.975 18.7246 124.975 18.4395C124.975 18.1543 124.914 17.8926 124.793 17.6543C124.672 17.416 124.48 17.2266 124.219 17.0859C123.961 16.9414 123.623 16.8691 123.205 16.8691H120.879V15.9434Z" fill="black"/>
</svg>
