<svg width="179" height="35" viewBox="0 0 179 35" fill="none" xmlns="http://www.w3.org/2000/svg">
<path d="M7.55859 17.4648V18.0039C7.55859 18.6445 7.47852 19.2188 7.31836 19.7266C7.1582 20.2344 6.92773 20.666 6.62695 21.0215C6.32617 21.377 5.96484 21.6484 5.54297 21.8359C5.125 22.0234 4.65625 22.1172 4.13672 22.1172C3.63281 22.1172 3.16992 22.0234 2.74805 21.8359C2.33008 21.6484 1.9668 21.377 1.6582 21.0215C1.35352 20.666 1.11719 20.2344 0.949219 19.7266C0.78125 19.2188 0.697266 18.6445 0.697266 18.0039V17.4648C0.697266 16.8242 0.779297 16.252 0.943359 15.748C1.11133 15.2402 1.34766 14.8086 1.65234 14.4531C1.95703 14.0938 2.31836 13.8203 2.73633 13.6328C3.1582 13.4453 3.62109 13.3516 4.125 13.3516C4.64453 13.3516 5.11328 13.4453 5.53125 13.6328C5.95312 13.8203 6.31445 14.0938 6.61523 14.4531C6.91992 14.8086 7.15234 15.2402 7.3125 15.748C7.47656 16.252 7.55859 16.8242 7.55859 17.4648ZM6.43945 18.0039V17.4531C6.43945 16.9453 6.38672 16.4961 6.28125 16.1055C6.17969 15.7148 6.0293 15.3867 5.83008 15.1211C5.63086 14.8555 5.38672 14.6543 5.09766 14.5176C4.8125 14.3809 4.48828 14.3125 4.125 14.3125C3.77344 14.3125 3.45508 14.3809 3.16992 14.5176C2.88867 14.6543 2.64648 14.8555 2.44336 15.1211C2.24414 15.3867 2.08984 15.7148 1.98047 16.1055C1.87109 16.4961 1.81641 16.9453 1.81641 17.4531V18.0039C1.81641 18.5156 1.87109 18.9688 1.98047 19.3633C2.08984 19.7539 2.24609 20.084 2.44922 20.3535C2.65625 20.6191 2.90039 20.8203 3.18164 20.957C3.4668 21.0938 3.78516 21.1621 4.13672 21.1621C4.50391 21.1621 4.83008 21.0938 5.11523 20.957C5.40039 20.8203 5.64062 20.6191 5.83594 20.3535C6.03516 20.084 6.18555 19.7539 6.28711 19.3633C6.38867 18.9688 6.43945 18.5156 6.43945 18.0039ZM12.2402 13.4688V22H11.127V13.4688H12.2402ZM14.9824 13.4688V14.3945H8.39062V13.4688H14.9824ZM22.7637 13.4688V22H21.6387V14.3945H17.4316V22H16.3008V13.4688H22.7637ZM27.9609 18.6543H25.6816V17.7344H27.9609C28.4023 17.7344 28.7598 17.6641 29.0332 17.5234C29.3066 17.3828 29.5059 17.1875 29.6309 16.9375C29.7598 16.6875 29.8242 16.4023 29.8242 16.082C29.8242 15.7891 29.7598 15.5137 29.6309 15.2559C29.5059 14.998 29.3066 14.791 29.0332 14.6348C28.7598 14.4746 28.4023 14.3945 27.9609 14.3945H25.9453V22H24.8145V13.4688H27.9609C28.6055 13.4688 29.1504 13.5801 29.5957 13.8027C30.041 14.0254 30.3789 14.334 30.6094 14.7285C30.8398 15.1191 30.9551 15.5664 30.9551 16.0703C30.9551 16.6172 30.8398 17.084 30.6094 17.4707C30.3789 17.8574 30.041 18.1523 29.5957 18.3555C29.1504 18.5547 28.6055 18.6543 27.9609 18.6543ZM34.7344 14.2246L31.9102 22H30.7559L34.0078 13.4688H34.752L34.7344 14.2246ZM37.1016 22L34.2715 14.2246L34.2539 13.4688H34.998L38.2617 22H37.1016ZM36.9551 18.8418V19.7676H32.1621V18.8418H36.9551ZM42.4453 18.0098H40.2832L40.2715 17.1016H42.2344C42.5586 17.1016 42.8418 17.0469 43.084 16.9375C43.3262 16.8281 43.5137 16.6719 43.6465 16.4688C43.7832 16.2617 43.8516 16.0156 43.8516 15.7305C43.8516 15.418 43.791 15.1641 43.6699 14.9688C43.5527 14.7695 43.3711 14.625 43.125 14.5352C42.8828 14.4414 42.5742 14.3945 42.1992 14.3945H40.5352V22H39.4043V13.4688H42.1992C42.6367 13.4688 43.0273 13.5137 43.3711 13.6035C43.7148 13.6895 44.0059 13.8262 44.2441 14.0137C44.4863 14.1973 44.6699 14.4316 44.7949 14.7168C44.9199 15.002 44.9824 15.3438 44.9824 15.7422C44.9824 16.0938 44.8926 16.4121 44.7129 16.6973C44.5332 16.9785 44.2832 17.209 43.9629 17.3887C43.6465 17.5684 43.2754 17.6836 42.8496 17.7344L42.4453 18.0098ZM42.3926 22H39.8379L40.4766 21.0801H42.3926C42.752 21.0801 43.0566 21.0176 43.3066 20.8926C43.5605 20.7676 43.7539 20.5918 43.8867 20.3652C44.0195 20.1348 44.0859 19.8633 44.0859 19.5508C44.0859 19.2344 44.0293 18.9609 43.916 18.7305C43.8027 18.5 43.625 18.3223 43.3828 18.1973C43.1406 18.0723 42.8281 18.0098 42.4453 18.0098H40.834L40.8457 17.1016H43.0488L43.2891 17.4297C43.6992 17.4648 44.0469 17.582 44.332 17.7812C44.6172 17.9766 44.834 18.2266 44.9824 18.5312C45.1348 18.8359 45.2109 19.1719 45.2109 19.5391C45.2109 20.0703 45.0938 20.5195 44.8594 20.8867C44.6289 21.25 44.3027 21.5273 43.8809 21.7188C43.459 21.9062 42.9629 22 42.3926 22ZM48.0586 20.043L52.2598 13.4688H53.3906V22H52.2598V15.4199L48.0586 22H46.9336V13.4688H48.0586V20.043ZM58.4238 13.4688V22H57.3105V13.4688H58.4238ZM61.166 13.4688V14.3945H54.5742V13.4688H61.166ZM63.3516 16.9434H65.6777C66.3027 16.9434 66.8301 17.0488 67.2598 17.2598C67.6895 17.4668 68.0156 17.7578 68.2383 18.1328C68.4609 18.5078 68.5723 18.9473 68.5723 19.4512C68.5723 19.8262 68.5098 20.1699 68.3848 20.4824C68.2598 20.791 68.0742 21.0605 67.8281 21.291C67.582 21.5176 67.2793 21.6934 66.9199 21.8184C66.5605 21.9395 66.1465 22 65.6777 22H62.4902V13.4688H63.6211V21.0801H65.6777C66.0957 21.0801 66.4336 21.0039 66.6914 20.8516C66.9531 20.6953 67.1445 20.4922 67.2656 20.2422C67.3867 19.9922 67.4473 19.7246 67.4473 19.4395C67.4473 19.1543 67.3867 18.8926 67.2656 18.6543C67.1445 18.416 66.9531 18.2266 66.6914 18.0859C66.4336 17.9414 66.0957 17.8691 65.6777 17.8691H63.3516V16.9434Z" fill="white"/>
<rect x="92" y="17.4141" width="2" height="2" transform="rotate(-45 92 17.4141)" fill="white"/>
<rect x="97" y="17.4141" width="2" height="2" transform="rotate(-45 97 17.4141)" fill="white"/>
<path d="M126.177 17.1768C126.274 17.0791 126.274 16.9209 126.177 16.8232L124.586 15.2322C124.488 15.1346 124.33 15.1346 124.232 15.2322C124.135 15.3299 124.135 15.4882 124.232 15.5858L125.646 17L124.232 18.4142C124.135 18.5118 124.135 18.6701 124.232 18.7678C124.33 18.8654 124.488 18.8654 124.586 18.7678L126.177 17.1768ZM105 17.25H126V16.75H105V17.25Z" fill="white"/>
</svg>
