<svg width="21" height="20" viewBox="0 0 21 20" fill="none" xmlns="http://www.w3.org/2000/svg">
<path d="M16.0059 3.57075C15.3581 3.57075 14.833 4.09588 14.833 4.7431C14.833 5.39089 15.3581 5.91602 16.0059 5.91602C16.6531 5.91602 17.1783 5.39089 17.1783 4.7431C17.1783 4.09588 16.6531 3.57075 16.0059 3.57075Z" fill="#1F1F1F"/>
<path d="M10.7938 13.1547C9.05397 13.1547 7.63857 11.7393 7.63857 9.99995C7.63857 8.26008 9.05397 6.84467 10.7938 6.84467C12.5331 6.84467 13.9486 8.26008 13.9486 9.99995C13.9486 11.7393 12.5331 13.1547 10.7938 13.1547ZM10.7938 5.07427C8.07777 5.07427 5.86816 7.28388 5.86816 9.99995C5.86816 12.7155 8.07777 14.925 10.7938 14.925C13.5093 14.925 15.7189 12.7155 15.7189 9.99995C15.7189 7.28388 13.5093 5.07427 10.7938 5.07427Z" fill="#1F1F1F"/>
<path d="M6.71893 1.88174C4.44376 1.88174 2.59309 3.7324 2.59309 6.00757V13.9924C2.59309 16.2676 4.44376 18.1182 6.71893 18.1182H14.7038C16.9789 18.1182 18.8302 16.2676 18.8302 13.9924V6.00757C18.8302 3.7324 16.9789 1.88174 14.7038 1.88174H6.71893ZM14.7038 20H6.71893C3.40594 20 0.711914 17.3048 0.711914 13.9924V6.00757C0.711914 2.69458 3.40594 0 6.71893 0H14.7038C18.0162 0 20.7114 2.69458 20.7114 6.00757V13.9924C20.7114 17.3048 18.0162 20 14.7038 20Z" fill="#1F1F1F"/>
</svg>
