<svg width="1440" height="542" viewBox="0 0 1440 542" fill="none" xmlns="http://www.w3.org/2000/svg">
<path d="M1319.77 521.622C1309.39 523.049 1299.02 524.19 1288.42 525.617C1167.76 541.311 1043.04 557.291 937.486 487.38C874.563 445.718 825.622 376.949 778.485 310.747C739.468 255.96 699.098 199.175 650.608 156.943C553.629 73.0499 429.135 53.646 331.704 46.5122C306.896 44.5148 281.636 43.3734 257.278 41.9466C171.576 37.381 83.3921 32.8154 -0.0552101 3.99492C-3.88927 2.85351 -7.72334 1.42676 -11.3319 0H-19C-13.1361 2.28281 -7.04674 4.56562 -0.73181 6.84843C82.941 35.6689 171.576 40.5199 257.053 44.8001C281.41 45.9415 306.67 47.3683 331.479 49.3657C428.683 56.7849 552.727 75.9034 649.255 159.511C697.519 201.173 737.889 257.957 776.681 312.745C824.043 379.232 872.984 448.287 936.359 489.948C1042.58 560.144 1167.53 544.165 1288.64 528.47C1299.24 527.044 1309.62 525.902 1319.99 524.475C1367.8 518.483 1420.13 514.773 1472 519.339V516.486C1420.13 511.635 1367.58 515.63 1319.77 521.622Z" fill="#332E4C" fill-opacity="0.2"/>
</svg>
