<svg width="966" height="314" viewBox="0 0 966 314" fill="none" xmlns="http://www.w3.org/2000/svg">
<path d="M109.287 242.401C200.162 286.002 300.353 244.837 368.415 202.698C403.396 181.019 437.427 155.2 470.508 130.355C513.094 98.2021 557.391 64.8316 603.779 39.9865C649.027 15.8721 764.047 -32.3567 852.831 42.9095C903.783 86.2666 939.334 166.161 958.346 280.4C960.057 291.117 961.768 302.078 963.289 313.039H965.19C963.669 302.078 961.958 290.874 960.247 279.913C941.235 164.943 905.494 84.5616 853.972 40.9608C764.427 -35.0361 648.837 13.4363 603.209 37.7943C556.63 62.6394 512.523 96.0098 469.747 128.162C436.857 153.008 402.826 178.827 367.845 200.506C300.163 242.401 200.542 283.323 110.237 240.209C77.9174 224.62 48.4494 199.288 20.1221 174.686C8.33488 164.456 -3.64244 153.982 -16 144.239V147.162C-4.02267 156.661 7.57442 166.648 18.9814 176.635C47.4988 201.48 76.9669 226.812 109.287 242.401Z" fill="white" fill-opacity="0.08"/>
</svg>
