<svg width="10" height="12" viewBox="0 0 10 12" fill="none" xmlns="http://www.w3.org/2000/svg">
<path d="M6.70046 4.22559C6.54119 4.22559 6.41211 4.34785 6.41211 4.49872V9.66088C6.41211 9.81163 6.54119 9.93401 6.70046 9.93401C6.85973 9.93401 6.98881 9.81163 6.98881 9.66088V4.49872C6.98881 4.34785 6.85973 4.22559 6.70046 4.22559Z" fill="white"/>
<path d="M3.29811 4.22559C3.13885 4.22559 3.00977 4.34785 3.00977 4.49872V9.66088C3.00977 9.81163 3.13885 9.93401 3.29811 9.93401C3.45738 9.93401 3.58646 9.81163 3.58646 9.66088V4.49872C3.58646 4.34785 3.45738 4.22559 3.29811 4.22559Z" fill="white"/>
<path d="M0.818955 3.47208V10.2014C0.818955 10.5992 0.972928 10.9727 1.2419 11.2407C1.50964 11.5094 1.88224 11.662 2.27218 11.6627H7.72782C8.11788 11.662 8.49047 11.5094 8.7581 11.2407C9.02707 10.9727 9.18105 10.5992 9.18105 10.2014V3.47208C9.71573 3.33765 10.0622 2.84837 9.99067 2.32868C9.91904 1.80909 9.45171 1.42041 8.89844 1.42031H7.42212V1.0789C7.42381 0.791791 7.30397 0.516101 7.0894 0.313281C6.87483 0.110568 6.58332 -0.00231132 6.28022 3.58869e-05H3.71978C3.41668 -0.00231132 3.12518 0.110568 2.9106 0.313281C2.69603 0.516101 2.57619 0.791791 2.57788 1.0789V1.42031H1.10156C0.548291 1.42041 0.0809647 1.80909 0.00932821 2.32868C-0.0621956 2.84837 0.284272 3.33765 0.818955 3.47208ZM7.72782 11.1164H2.27218C1.77918 11.1164 1.39565 10.7152 1.39565 10.2014V3.49609H8.60435V10.2014C8.60435 10.7152 8.22082 11.1164 7.72782 11.1164ZM3.15457 1.0789C3.15266 0.936677 3.21168 0.799793 3.31823 0.699396C3.42467 0.599 3.56952 0.543841 3.71978 0.546294H6.28022C6.43048 0.543841 6.57533 0.599 6.68177 0.699396C6.78832 0.799686 6.84734 0.936677 6.84543 1.0789V1.42031H3.15457V1.0789ZM1.10156 1.96657H8.89844C9.1851 1.96657 9.41747 2.18667 9.41747 2.4582C9.41747 2.72973 9.1851 2.94983 8.89844 2.94983H1.10156C0.8149 2.94983 0.582532 2.72973 0.582532 2.4582C0.582532 2.18667 0.8149 1.96657 1.10156 1.96657Z" fill="white"/>
<path d="M4.99929 4.22559C4.84002 4.22559 4.71094 4.34785 4.71094 4.49872V9.66088C4.71094 9.81163 4.84002 9.93401 4.99929 9.93401C5.15855 9.93401 5.28764 9.81163 5.28764 9.66088V4.49872C5.28764 4.34785 5.15855 4.22559 4.99929 4.22559Z" fill="white"/>
</svg>
