<svg width="38" height="38" viewBox="0 0 38 38" fill="none" xmlns="http://www.w3.org/2000/svg">
<circle cx="19" cy="19" r="19" fill="#1F1F1F"/>
<path d="M15.3562 18.9285L21.7104 12.5919C21.9186 12.3844 22.2557 12.3847 22.4635 12.593C22.6712 12.8011 22.6707 13.1384 22.4624 13.346L16.4865 19.3055L22.4627 25.265C22.6709 25.4727 22.6714 25.8097 22.4637 26.0179C22.3595 26.1223 22.2231 26.1745 22.0866 26.1745C21.9504 26.1745 21.8145 26.1226 21.7105 26.019L15.3562 19.6825C15.256 19.5827 15.1997 19.447 15.1997 19.3055C15.1997 19.1641 15.2561 19.0285 15.3562 18.9285Z" fill="#332E4C"/>
<circle cx="18.9991" cy="19.0001" r="14.3545" stroke="white" stroke-dasharray="3 3"/>
</svg>
