<svg width="17" height="14" viewBox="0 0 17 14" fill="none" xmlns="http://www.w3.org/2000/svg">
<path d="M15.9039 10.1196V10.0422V3.56733V3.49478L15.9729 3.47227L16.7396 3.22193L16.7707 3.31699L16.7396 3.22193C16.835 3.19079 16.9 3.10132 16.9 2.99999C16.9 2.89868 16.8351 2.80922 16.7396 2.77805L8.5717 0.111401C8.52507 0.0961997 8.47493 0.0961997 8.4283 0.111401L0.260387 2.77805C0.164979 2.80922 0.1 2.89872 0.1 3.00003C0.1 3.10133 0.164968 3.1908 0.260387 3.22197L3.55057 4.29613L3.61953 4.31865V4.39119V7.00003C3.61953 7.61429 4.12541 8.20006 5.12179 8.62877C6.02465 9.01724 7.22427 9.23336 8.5 9.23336C9.77573 9.23336 10.9753 9.01724 11.8782 8.62877C12.8746 8.20006 13.3805 7.61429 13.3805 7.00003V4.39119V4.31865L13.4494 4.29613L15.3088 3.6891L15.4398 3.64632V3.78416V10.0422V10.1196L15.3649 10.139C14.8359 10.2762 14.4438 10.7598 14.4438 11.3334V12.06C14.4438 12.5962 14.2266 13.1212 13.8478 13.5015M15.9039 10.1196L13.8478 13.5015M15.9039 10.1196L15.9788 10.139C16.5078 10.2762 16.9 10.7597 16.9 11.3333V11.6667C16.9 12.8984 15.9018 13.9 14.6758 13.9H14.0117C13.9181 13.9 13.8334 13.8434 13.7974 13.7561L15.9039 10.1196ZM13.8478 13.5015L13.7769 13.431L13.8478 13.5015C13.8478 13.5015 13.8478 13.5015 13.8478 13.5015ZM8.53104 0.58883L8.5 0.578698L8.46896 0.58883L1.37462 2.90496L1.08344 3.00003L1.37462 3.09509L8.46896 5.41122L8.5 5.42136L8.53104 5.41122L15.6254 3.09509L15.9166 3.00003L15.6254 2.90496L8.53104 0.58883ZM4.21463 4.51293L4.08359 4.47015V4.60799V7.00003C4.08359 7.23579 4.21562 7.46303 4.4319 7.66594C4.64929 7.86989 4.96184 8.05928 5.34934 8.22124C6.12498 8.54543 7.21763 8.7667 8.5 8.7667C9.78237 8.7667 10.875 8.54543 11.6507 8.22124C12.0382 8.05928 12.3507 7.86989 12.5681 7.66594C12.7844 7.46303 12.9164 7.23579 12.9164 7.00003V4.60799V4.47015L12.7854 4.51293L8.57176 5.8886C8.54833 5.89622 8.52414 5.90003 8.5 5.90003C8.47579 5.90003 8.45161 5.89623 8.42835 5.88864L8.42834 5.88863L4.21463 4.51293Z" fill="black" stroke="white" stroke-width="0.2"/>
</svg>
