<svg width="16" height="16" viewBox="0 0 16 16" fill="none" xmlns="http://www.w3.org/2000/svg">
<path d="M15.2144 16L10.9511 11.7368C9.75108 12.7544 8.2464 13.3105 6.65523 13.3105C4.87776 13.3105 3.20641 12.6183 1.94951 11.3612C0.692245 10.1041 0 8.43279 0 6.65515C0 4.87752 0.692245 3.20619 1.94951 1.94912C3.20641 0.692238 4.87795 0 6.65523 0C8.43307 0 10.1044 0.692238 11.3617 1.94912C13.824 4.41177 13.9477 8.3389 11.7367 10.951L16 15.2142L15.2144 16ZM10.5759 10.5754C12.7375 8.4139 12.7375 4.8966 10.5759 2.73488C9.52848 1.68782 8.13621 1.11095 6.65504 1.11095C5.17425 1.11095 3.78198 1.68763 2.73491 2.73488C1.68746 3.78194 1.11078 5.17438 1.11078 6.65515C1.11078 8.13612 1.68728 9.52837 2.73491 10.5754C3.78198 11.6227 5.17425 12.1995 6.65504 12.1995C8.13621 12.1995 9.52848 11.6229 10.5759 10.5754Z" fill="black"/>
</svg>
