<svg width="179" height="35" viewBox="0 0 179 35" fill="none" xmlns="http://www.w3.org/2000/svg">
<path d="M6.14062 19.2871H7.26562C7.20703 19.8262 7.05273 20.3086 6.80273 20.7344C6.55273 21.1602 6.19922 21.498 5.74219 21.748C5.28516 21.9941 4.71484 22.1172 4.03125 22.1172C3.53125 22.1172 3.07617 22.0234 2.66602 21.8359C2.25977 21.6484 1.91016 21.3828 1.61719 21.0391C1.32422 20.6914 1.09766 20.2754 0.9375 19.791C0.78125 19.3027 0.703125 18.7598 0.703125 18.1621V17.3125C0.703125 16.7148 0.78125 16.1738 0.9375 15.6895C1.09766 15.2012 1.32617 14.7832 1.62305 14.4355C1.92383 14.0879 2.28516 13.8203 2.70703 13.6328C3.12891 13.4453 3.60352 13.3516 4.13086 13.3516C4.77539 13.3516 5.32031 13.4727 5.76562 13.7148C6.21094 13.957 6.55664 14.293 6.80273 14.7227C7.05273 15.1484 7.20703 15.6426 7.26562 16.2051H6.14062C6.08594 15.8066 5.98438 15.4648 5.83594 15.1797C5.6875 14.8906 5.47656 14.668 5.20312 14.5117C4.92969 14.3555 4.57227 14.2773 4.13086 14.2773C3.75195 14.2773 3.41797 14.3496 3.12891 14.4941C2.84375 14.6387 2.60352 14.8438 2.4082 15.1094C2.2168 15.375 2.07227 15.6934 1.97461 16.0645C1.87695 16.4355 1.82812 16.8477 1.82812 17.3008V18.1621C1.82812 18.5801 1.87109 18.9727 1.95703 19.3398C2.04688 19.707 2.18164 20.0293 2.36133 20.3066C2.54102 20.584 2.76953 20.8027 3.04688 20.9629C3.32422 21.1191 3.65234 21.1973 4.03125 21.1973C4.51172 21.1973 4.89453 21.1211 5.17969 20.9688C5.46484 20.8164 5.67969 20.5977 5.82422 20.3125C5.97266 20.0273 6.07812 19.6855 6.14062 19.2871ZM15.375 17.4648V18.0039C15.375 18.6445 15.2949 19.2188 15.1348 19.7266C14.9746 20.2344 14.7441 20.666 14.4434 21.0215C14.1426 21.377 13.7812 21.6484 13.3594 21.8359C12.9414 22.0234 12.4727 22.1172 11.9531 22.1172C11.4492 22.1172 10.9863 22.0234 10.5645 21.8359C10.1465 21.6484 9.7832 21.377 9.47461 21.0215C9.16992 20.666 8.93359 20.2344 8.76562 19.7266C8.59766 19.2188 8.51367 18.6445 8.51367 18.0039V17.4648C8.51367 16.8242 8.5957 16.252 8.75977 15.748C8.92773 15.2402 9.16406 14.8086 9.46875 14.4531C9.77344 14.0938 10.1348 13.8203 10.5527 13.6328C10.9746 13.4453 11.4375 13.3516 11.9414 13.3516C12.4609 13.3516 12.9297 13.4453 13.3477 13.6328C13.7695 13.8203 14.1309 14.0938 14.4316 14.4531C14.7363 14.8086 14.9688 15.2402 15.1289 15.748C15.293 16.252 15.375 16.8242 15.375 17.4648ZM14.2559 18.0039V17.4531C14.2559 16.9453 14.2031 16.4961 14.0977 16.1055C13.9961 15.7148 13.8457 15.3867 13.6465 15.1211C13.4473 14.8555 13.2031 14.6543 12.9141 14.5176C12.6289 14.3809 12.3047 14.3125 11.9414 14.3125C11.5898 14.3125 11.2715 14.3809 10.9863 14.5176C10.7051 14.6543 10.4629 14.8555 10.2598 15.1211C10.0605 15.3867 9.90625 15.7148 9.79688 16.1055C9.6875 16.4961 9.63281 16.9453 9.63281 17.4531V18.0039C9.63281 18.5156 9.6875 18.9688 9.79688 19.3633C9.90625 19.7539 10.0625 20.084 10.2656 20.3535C10.4727 20.6191 10.7168 20.8203 10.998 20.957C11.2832 21.0938 11.6016 21.1621 11.9531 21.1621C12.3203 21.1621 12.6465 21.0938 12.9316 20.957C13.2168 20.8203 13.457 20.6191 13.6523 20.3535C13.8516 20.084 14.002 19.7539 14.1035 19.3633C14.2051 18.9688 14.2559 18.5156 14.2559 18.0039ZM17.6719 13.4688L19.7227 16.7383L21.7734 13.4688H23.0918L20.3965 17.6934L23.1562 22H21.8262L19.7227 18.666L17.6191 22H16.2891L19.0488 17.6934L16.3535 13.4688H17.6719ZM27.6094 18.6543H25.3301V17.7344H27.6094C28.0508 17.7344 28.4082 17.6641 28.6816 17.5234C28.9551 17.3828 29.1543 17.1875 29.2793 16.9375C29.4082 16.6875 29.4727 16.4023 29.4727 16.082C29.4727 15.7891 29.4082 15.5137 29.2793 15.2559C29.1543 14.998 28.9551 14.791 28.6816 14.6348C28.4082 14.4746 28.0508 14.3945 27.6094 14.3945H25.5938V22H24.4629V13.4688H27.6094C28.2539 13.4688 28.7988 13.5801 29.2441 13.8027C29.6895 14.0254 30.0273 14.334 30.2578 14.7285C30.4883 15.1191 30.6035 15.5664 30.6035 16.0703C30.6035 16.6172 30.4883 17.084 30.2578 17.4707C30.0273 17.8574 29.6895 18.1523 29.2441 18.3555C28.7988 18.5547 28.2539 18.6543 27.6094 18.6543ZM34.3828 14.2246L31.5586 22H30.4043L33.6562 13.4688H34.4004L34.3828 14.2246ZM36.75 22L33.9199 14.2246L33.9023 13.4688H34.6465L37.9102 22H36.75ZM36.6035 18.8418V19.7676H31.8105V18.8418H36.6035ZM44.625 17.1367V18.0566H40.0078V17.1367H44.625ZM40.1836 13.4688V22H39.0527V13.4688H40.1836ZM45.6094 13.4688V22H44.4844V13.4688H45.6094ZM48.7969 20.043L52.998 13.4688H54.1289V22H52.998V15.4199L48.7969 22H47.6719V13.4688H48.7969V20.043ZM59.1621 13.4688V22H58.0488V13.4688H59.1621ZM61.9043 13.4688V14.3945H55.3125V13.4688H61.9043ZM64.0898 16.9434H66.416C67.041 16.9434 67.5684 17.0488 67.998 17.2598C68.4277 17.4668 68.7539 17.7578 68.9766 18.1328C69.1992 18.5078 69.3105 18.9473 69.3105 19.4512C69.3105 19.8262 69.248 20.1699 69.123 20.4824C68.998 20.791 68.8125 21.0605 68.5664 21.291C68.3203 21.5176 68.0176 21.6934 67.6582 21.8184C67.2988 21.9395 66.8848 22 66.416 22H63.2285V13.4688H64.3594V21.0801H66.416C66.834 21.0801 67.1719 21.0039 67.4297 20.8516C67.6914 20.6953 67.8828 20.4922 68.0039 20.2422C68.125 19.9922 68.1855 19.7246 68.1855 19.4395C68.1855 19.1543 68.125 18.8926 68.0039 18.6543C67.8828 18.416 67.6914 18.2266 67.4297 18.0859C67.1719 17.9414 66.834 17.8691 66.416 17.8691H64.0898V16.9434Z" fill="#1F1F1F"/>
<rect x="92" y="17.4141" width="2" height="2" transform="rotate(-45 92 17.4141)" fill="#1F1F1F"/>
<rect x="97" y="17.4141" width="2" height="2" transform="rotate(-45 97 17.4141)" fill="#1F1F1F"/>
<path d="M126.177 17.1768C126.274 17.0791 126.274 16.9209 126.177 16.8232L124.586 15.2322C124.488 15.1346 124.33 15.1346 124.232 15.2322C124.135 15.3299 124.135 15.4882 124.232 15.5858L125.646 17L124.232 18.4142C124.135 18.5118 124.135 18.6701 124.232 18.7678C124.33 18.8654 124.488 18.8654 124.586 18.7678L126.177 17.1768ZM105 17.25H126V16.75H105V17.25Z" fill="#1F1F1F"/>
</svg>
