<svg width="55" height="55" viewBox="0 0 55 55" fill="none" xmlns="http://www.w3.org/2000/svg">
<circle cx="27.5" cy="27.5" r="27.5" fill="white"/>
<path d="M22.2262 27.3963L31.423 18.2249C31.7244 17.9245 32.2122 17.925 32.513 18.2264C32.8136 18.5277 32.8129 19.0159 32.5115 19.3164L23.862 27.942L32.5118 36.5675C32.8131 36.8681 32.8139 37.3559 32.5134 37.6573C32.3626 37.8083 32.165 37.8839 31.9674 37.8839C31.7704 37.8839 31.5736 37.8088 31.4231 37.6588L22.2262 28.4876C22.081 28.3432 21.9996 28.1467 21.9996 27.942C21.9996 27.7372 22.0813 27.541 22.2262 27.3963Z" fill="#332E4C"/>
<circle cx="27.5" cy="27.5" r="21" stroke="#332E4C" stroke-dasharray="3 3"/>
</svg>
