<svg width="55" height="55" viewBox="0 0 55 55" fill="none" xmlns="http://www.w3.org/2000/svg">
<circle cx="27.5" cy="27.5" r="27.5" fill="white"/>
<path d="M32.5121 27.3963L23.3152 18.2249C23.0139 17.9245 22.5261 17.925 22.2252 18.2264C21.9247 18.5277 21.9254 19.0159 22.2268 19.3164L30.8762 27.942L22.2265 36.5675C21.9252 36.8681 21.9244 37.3559 22.2249 37.6573C22.3757 37.8083 22.5733 37.8839 22.7708 37.8839C22.9679 37.8839 23.1647 37.8088 23.3152 37.6588L32.5121 28.4876C32.6572 28.3432 32.7387 28.1467 32.7387 27.942C32.7387 27.7372 32.657 27.541 32.5121 27.3963Z" fill="#332E4C"/>
<circle cx="27.5" cy="27.5" r="21" stroke="#332E4C" stroke-dasharray="3 3"/>
</svg>
