<svg width="230" height="35" viewBox="0 0 230 35" fill="none" xmlns="http://www.w3.org/2000/svg">
<path d="M0.884766 13.4688H2.01562V16.1348C2.01562 16.5762 2.08008 16.9219 2.20898 17.1719C2.33789 17.4219 2.5332 17.5977 2.79492 17.6992C3.05664 17.8008 3.38281 17.8516 3.77344 17.8516C4.00781 17.8516 4.23438 17.8418 4.45312 17.8223C4.67578 17.8027 4.89258 17.7754 5.10352 17.7402C5.31445 17.7051 5.52148 17.6621 5.72461 17.6113C5.93164 17.5605 6.13477 17.5059 6.33398 17.4473V18.373C6.14258 18.4316 5.95117 18.4863 5.75977 18.5371C5.57227 18.5879 5.37695 18.6309 5.17383 18.666C4.97461 18.7012 4.75977 18.7285 4.5293 18.748C4.30273 18.7676 4.05078 18.7773 3.77344 18.7773C3.17188 18.7773 2.6543 18.6914 2.2207 18.5195C1.79102 18.3438 1.46094 18.0625 1.23047 17.6758C1 17.2891 0.884766 16.7754 0.884766 16.1348V13.4688ZM6.04688 13.4688H7.17773V22H6.04688V13.4688ZM10.3828 20.043L14.584 13.4688H15.7148V22H14.584V15.4199L10.3828 22H9.25781V13.4688H10.3828V20.043ZM20.748 13.4688V22H19.6348V13.4688H20.748ZM23.4902 13.4688V14.3945H16.8984V13.4688H23.4902ZM27.4453 14.2246L24.6211 22H23.4668L26.7188 13.4688H27.4629L27.4453 14.2246ZM29.8125 22L26.9824 14.2246L26.9648 13.4688H27.709L30.9727 22H29.8125ZM29.666 18.8418V19.7676H24.873V18.8418H29.666ZM34.5059 13.4688V22H33.3926V13.4688H34.5059ZM37.248 13.4688V14.3945H30.6562V13.4688H37.248ZM39.4336 16.9434H41.7598C42.3848 16.9434 42.9121 17.0488 43.3418 17.2598C43.7715 17.4668 44.0977 17.7578 44.3203 18.1328C44.543 18.5078 44.6543 18.9473 44.6543 19.4512C44.6543 19.8262 44.5918 20.1699 44.4668 20.4824C44.3418 20.791 44.1562 21.0605 43.9102 21.291C43.6641 21.5176 43.3613 21.6934 43.002 21.8184C42.6426 21.9395 42.2285 22 41.7598 22H38.5723V13.4688H39.7031V21.0801H41.7598C42.1777 21.0801 42.5156 21.0039 42.7734 20.8516C43.0352 20.6953 43.2266 20.4922 43.3477 20.2422C43.4688 19.9922 43.5293 19.7246 43.5293 19.4395C43.5293 19.1543 43.4688 18.8926 43.3477 18.6543C43.2266 18.416 43.0352 18.2266 42.7734 18.0859C42.5156 17.9414 42.1777 17.8691 41.7598 17.8691H39.4336V16.9434ZM54.3223 13.4688V14.3945H50.209V22H49.084V13.4688H54.3223ZM49.9453 16.9434H52.2715C52.8965 16.9434 53.4238 17.0488 53.8535 17.2598C54.2832 17.4668 54.6094 17.7578 54.832 18.1328C55.0547 18.5078 55.166 18.9473 55.166 19.4512C55.166 19.8262 55.1035 20.1699 54.9785 20.4824C54.8535 20.791 54.668 21.0605 54.4219 21.291C54.1758 21.5176 53.873 21.6934 53.5137 21.8184C53.1543 21.9395 52.7402 22 52.2715 22H49.084V13.4688H50.2148V21.0801H52.2715C52.6895 21.0801 53.0273 21.0039 53.2852 20.8516C53.5469 20.6953 53.7383 20.4922 53.8594 20.2422C53.9805 19.9922 54.041 19.7246 54.041 19.4395C54.041 19.1543 53.9805 18.8926 53.8594 18.6543C53.7383 18.416 53.5469 18.2266 53.2852 18.0859C53.0273 17.9414 52.6895 17.8691 52.2715 17.8691H49.9453V16.9434ZM63.2578 17.4648V18.0039C63.2578 18.6445 63.1777 19.2188 63.0176 19.7266C62.8574 20.2344 62.627 20.666 62.3262 21.0215C62.0254 21.377 61.6641 21.6484 61.2422 21.8359C60.8242 22.0234 60.3555 22.1172 59.8359 22.1172C59.332 22.1172 58.8691 22.0234 58.4473 21.8359C58.0293 21.6484 57.666 21.377 57.3574 21.0215C57.0527 20.666 56.8164 20.2344 56.6484 19.7266C56.4805 19.2188 56.3965 18.6445 56.3965 18.0039V17.4648C56.3965 16.8242 56.4785 16.252 56.6426 15.748C56.8105 15.2402 57.0469 14.8086 57.3516 14.4531C57.6562 14.0938 58.0176 13.8203 58.4355 13.6328C58.8574 13.4453 59.3203 13.3516 59.8242 13.3516C60.3438 13.3516 60.8125 13.4453 61.2305 13.6328C61.6523 13.8203 62.0137 14.0938 62.3145 14.4531C62.6191 14.8086 62.8516 15.2402 63.0117 15.748C63.1758 16.252 63.2578 16.8242 63.2578 17.4648ZM62.1387 18.0039V17.4531C62.1387 16.9453 62.0859 16.4961 61.9805 16.1055C61.8789 15.7148 61.7285 15.3867 61.5293 15.1211C61.3301 14.8555 61.0859 14.6543 60.7969 14.5176C60.5117 14.3809 60.1875 14.3125 59.8242 14.3125C59.4727 14.3125 59.1543 14.3809 58.8691 14.5176C58.5879 14.6543 58.3457 14.8555 58.1426 15.1211C57.9434 15.3867 57.7891 15.7148 57.6797 16.1055C57.5703 16.4961 57.5156 16.9453 57.5156 17.4531V18.0039C57.5156 18.5156 57.5703 18.9688 57.6797 19.3633C57.7891 19.7539 57.9453 20.084 58.1484 20.3535C58.3555 20.6191 58.5996 20.8203 58.8809 20.957C59.166 21.0938 59.4844 21.1621 59.8359 21.1621C60.2031 21.1621 60.5293 21.0938 60.8145 20.957C61.0996 20.8203 61.3398 20.6191 61.5352 20.3535C61.7344 20.084 61.8848 19.7539 61.9863 19.3633C62.0879 18.9688 62.1387 18.5156 62.1387 18.0039ZM70.248 13.4688V14.3945H66.3457V13.4688H70.248ZM71.2207 13.4688V22H70.0898V13.4688H71.2207ZM65.959 13.4688H67.084L66.8906 17.6465C66.8633 18.248 66.8164 18.7852 66.75 19.2578C66.6875 19.7266 66.5977 20.1348 66.4805 20.4824C66.3633 20.8262 66.2109 21.1113 66.0234 21.3379C65.8359 21.5605 65.6055 21.7266 65.332 21.8359C65.0625 21.9453 64.7383 22 64.3594 22H64.0547V21.0801L64.2891 21.0625C64.5078 21.0469 64.6953 20.998 64.8516 20.916C65.0117 20.8301 65.1465 20.7012 65.2559 20.5293C65.3691 20.3574 65.4609 20.1348 65.5312 19.8613C65.6016 19.5879 65.6562 19.2539 65.6953 18.8594C65.7383 18.4609 65.7715 17.9961 65.7949 17.4648L65.959 13.4688ZM74.0859 16.9434H76.4121C77.0371 16.9434 77.5645 17.0488 77.9941 17.2598C78.4238 17.4668 78.75 17.7578 78.9727 18.1328C79.1953 18.5078 79.3066 18.9473 79.3066 19.4512C79.3066 19.8262 79.2441 20.1699 79.1191 20.4824C78.9941 20.791 78.8086 21.0605 78.5625 21.291C78.3164 21.5176 78.0137 21.6934 77.6543 21.8184C77.2949 21.9395 76.8809 22 76.4121 22H73.2246V13.4688H74.3555V21.0801H76.4121C76.8301 21.0801 77.168 21.0039 77.4258 20.8516C77.6875 20.6953 77.8789 20.4922 78 20.2422C78.1211 19.9922 78.1816 19.7246 78.1816 19.4395C78.1816 19.1543 78.1211 18.8926 78 18.6543C77.8789 18.416 77.6875 18.2266 77.4258 18.0859C77.168 17.9414 76.8301 17.8691 76.4121 17.8691H74.0859V16.9434ZM80.8359 13.4688H81.9727V21.0801H84.9023V13.4688H86.0273V21.0801H88.9395V13.4688H90.0703V22H80.8359V13.4688ZM97.5117 21.0801V22H92.9941V21.0801H97.5117ZM93.2227 13.4688V22H92.0918V13.4688H93.2227ZM96.9141 17.1367V18.0566H92.9941V17.1367H96.9141ZM97.4531 13.4688V14.3945H92.9941V13.4688H97.4531Z" fill="white"/>
<rect width="2.30261" height="2.30261" transform="matrix(0.789168 -0.614178 0.789168 0.614178 118.212 17.4141)" fill="white"/>
<rect width="2.30261" height="2.30261" transform="matrix(0.789168 -0.614178 0.789168 0.614178 124.637 17.4141)" fill="white"/>
<path d="M162.076 17.1768C162.174 17.0791 162.174 16.9209 162.076 16.8232L160.485 15.2322C160.388 15.1346 160.229 15.1346 160.132 15.2322C160.034 15.3299 160.034 15.4882 160.132 15.5858L161.546 17L160.132 18.4142C160.034 18.5118 160.034 18.6701 160.132 18.7678C160.229 18.8654 160.388 18.8654 160.485 18.7678L162.076 17.1768ZM134.916 17.25H161.9V16.75H134.916V17.25Z" fill="white"/>
</svg>
