<svg width="25" height="25" viewBox="0 0 25 25" fill="none" xmlns="http://www.w3.org/2000/svg">
<g clip-path="url(#clip0_1377_2105)">
<path d="M5.42171 15.8271C5.4746 15.8271 5.5271 15.817 5.57635 15.7975L7.6617 14.9634C7.80011 14.9081 7.89862 14.7832 7.91981 14.6356C7.94119 14.4881 7.8822 14.3405 7.76517 14.2483C7.64814 14.1559 7.49064 14.1332 7.35223 14.1885L5.26688 15.0226C5.08112 15.0967 4.97402 15.2924 5.01182 15.4888C5.04962 15.6853 5.22164 15.8273 5.42171 15.8271Z" fill="#332E4C"/>
<path d="M7.69336 19.2067L5.19107 17.9556C5.05762 17.889 4.89897 17.8985 4.77449 17.9808C4.65021 18.0629 4.57919 18.2051 4.58816 18.3541C4.59713 18.5028 4.68476 18.6355 4.81821 18.7021L7.32051 19.9533C7.45396 20.02 7.61261 20.0102 7.73708 19.9281C7.86137 19.8458 7.93239 19.7036 7.92341 19.5549C7.91444 19.406 7.82681 19.2733 7.69336 19.2067Z" fill="#332E4C"/>
<path d="M12.3571 14.9634L14.4423 15.7975C14.5807 15.8527 14.7382 15.83 14.8552 15.7378C14.9722 15.6456 15.0312 15.4978 15.0098 15.3502C14.9887 15.2028 14.8901 15.0778 14.7517 15.0226L12.6664 14.1885C12.528 14.1332 12.3707 14.1559 12.2536 14.2483C12.1364 14.3405 12.0774 14.4881 12.0988 14.6356C12.1202 14.7832 12.2185 14.9081 12.3571 14.9634Z" fill="#332E4C"/>
<path d="M14.8276 17.9562L12.3253 19.2073C12.1191 19.3104 12.0355 19.5608 12.1384 19.767C12.2413 19.9732 12.492 20.0568 12.698 19.9539L15.2004 18.7027C15.4064 18.5998 15.4902 18.3491 15.3872 18.1429C15.2842 17.9369 15.0338 17.8531 14.8276 17.9562Z" fill="#332E4C"/>
<path d="M13.4292 0.860258C12.3066 1.32456 11.2809 1.99428 10.4044 2.83544C10.3376 2.89615 10.2692 2.96889 10.1995 3.04392C10.1682 3.07771 10.1365 3.11189 10.1041 3.14568C10.0794 3.14568 10.0556 3.13804 10.0306 3.13804C9.4773 3.13785 8.97807 3.47061 8.76539 3.9815C8.55252 4.49238 8.66802 5.08096 9.05806 5.47367L8.84958 5.68215L8.63843 5.47119C8.10101 4.94809 7.24286 4.95381 6.7125 5.48417C6.18214 6.01434 6.17623 6.87249 6.69914 7.4101L6.91067 7.62106L6.69914 7.83202C6.16363 8.36753 6.16363 9.2358 6.69914 9.77151C7.23465 10.307 8.10292 10.307 8.63843 9.77151L8.84958 9.56036L9.04718 9.75814C8.71098 10.1024 8.58116 10.5983 8.70582 11.0632C8.83049 11.5279 9.19112 11.8925 9.65447 12.0222L9.64607 12.4935C4.20849 12.5861 0 14.723 0 17.4365C0 17.4632 0.00324552 17.4899 0.00420009 17.5165C0.00420009 17.5237 0 17.5294 0 17.5365V19.9556C0.00229096 19.9726 0.00572741 19.9894 0.00992748 20.006C0.221459 22.7339 4.71269 25.0018 10.0094 25.0018C15.3059 25.0018 19.7973 22.7339 20.0086 20.006C20.013 19.9894 20.0165 19.9726 20.0188 19.9556V17.5365C20.0188 17.5294 20.0149 17.5237 20.0146 17.5165C20.0146 17.4899 20.0188 17.4632 20.0188 17.4365C20.0188 14.7423 15.866 12.6153 10.4802 12.496L10.4893 11.9956C10.929 11.8416 11.2595 11.4737 11.3656 11.0201C11.4718 10.5667 11.3387 10.0903 11.0132 9.75719L11.2108 9.55959L11.4223 9.77055C11.9599 10.2937 12.8179 10.2875 13.3483 9.75719C13.8786 9.22683 13.8843 8.36868 13.3612 7.83126L13.1503 7.6203L13.3612 7.40915C13.8966 6.87383 13.8966 6.00575 13.3612 5.47023C12.8257 4.93491 11.9576 4.93491 11.4223 5.47023L11.2108 5.68138L11.0023 5.47291C11.4464 5.03114 11.5296 4.34251 11.2033 3.80796C12.5701 3.46336 14.808 3.14396 16.3962 4.1537C17.8112 5.05042 17.8746 6.46909 17.9479 8.11228C17.963 8.69514 18.0115 9.27666 18.0936 9.85398C18.4326 11.9113 19.2037 13.2041 20.4491 13.8061C20.8824 14.0281 21.3609 14.1488 21.8479 14.1585C22.4808 14.1581 23.0898 13.916 23.5503 13.4819C24.0039 13.0562 24.3313 12.5134 24.4962 11.9134C25.3374 9.17127 25.3387 5.31025 22.8217 2.69646C20.1217 -0.109007 17.2244 -0.675446 13.4292 0.860258ZM10.0306 3.97233C10.2478 3.97233 10.4439 4.10311 10.5269 4.30395C10.61 4.50479 10.564 4.73579 10.4103 4.88948C10.2566 5.04297 10.0254 5.08879 9.82476 5.00555C9.62411 4.92231 9.49334 4.72625 9.49353 4.50899C9.49372 4.2125 9.73408 3.97233 10.0306 3.97233ZM7.28925 6.82114C7.15294 6.68559 7.09967 6.48742 7.14931 6.30166C7.19895 6.1159 7.34404 5.97081 7.5298 5.92136C7.71556 5.87172 7.91373 5.92537 8.04908 6.06168L8.26023 6.27264L7.50078 7.03209L7.28925 6.82114ZM8.84958 6.86295L9.60942 7.6224L8.84958 8.38223L8.09089 7.62182L8.84958 6.86295ZM8.04908 9.18254C7.83679 9.38548 7.50212 9.38548 7.28963 9.18254C7.0802 8.97292 7.0802 8.63309 7.28963 8.42347L7.50078 8.21213L8.26023 8.97196L8.04908 9.18254ZM10.0094 18.2326L7.31388 17.0777L10.0094 15.9218L12.7047 17.0777L10.0094 18.2326ZM19.1847 19.8053C19.1847 21.8685 15.4164 24.1677 10.0094 24.1677C4.60215 24.1677 0.834099 21.8685 0.834099 19.8053V19.4571C2.37973 21.2459 5.90971 22.4995 10.0094 22.4995C14.109 22.4995 17.639 21.2459 19.1847 19.455V19.8053ZM19.1847 17.4365C19.1847 19.6894 14.8973 21.6654 10.0094 21.6654C5.12143 21.6654 0.834099 19.6894 0.834099 17.4365C0.834099 15.2641 4.82494 13.4216 9.63061 13.329L9.5972 15.1911L6.09108 16.6946C5.93778 16.7603 5.8385 16.9111 5.8385 17.0777C5.8385 17.2446 5.93778 17.3954 6.09108 17.4611L9.84462 19.0709C9.85035 19.0734 9.85627 19.0709 9.86218 19.0743C9.90896 19.0934 9.95879 19.1037 10.0094 19.1047C10.0598 19.1037 10.1094 19.0934 10.1562 19.0747C10.1619 19.0722 10.1682 19.0747 10.1741 19.0709L13.9275 17.4611C14.0808 17.3954 14.1803 17.2446 14.1803 17.0777C14.1803 16.9111 14.0808 16.7603 13.9275 16.6946L10.4315 15.1931L10.4651 13.3276C15.2368 13.4403 19.1847 15.2757 19.1847 17.4365ZM10.0306 11.2478C9.81331 11.248 9.61724 11.1171 9.534 10.9164C9.45077 10.7156 9.49658 10.4844 9.65027 10.3307C9.80396 10.1772 10.0352 10.1312 10.236 10.2144C10.4366 10.2977 10.5676 10.4937 10.5674 10.711C10.5668 11.0073 10.3269 11.2473 10.0306 11.2478ZM10.4101 9.18254C10.1974 9.3851 9.86333 9.3851 9.65065 9.18254L9.43969 8.97158L10.0306 8.38051L10.6213 8.97101L10.4101 9.18254ZM10.4519 7.62182L11.2114 6.86237L11.9695 7.62182L11.2096 8.38128L10.4519 7.62182ZM12.7719 8.42309C12.9815 8.6329 12.9815 8.97272 12.7719 9.18254C12.5592 9.3851 12.2251 9.3851 12.0124 9.18254L11.8011 8.97158L12.5609 8.21155L12.7719 8.42309ZM12.0113 6.06168C12.2222 5.86027 12.5556 5.86428 12.7618 6.07047C12.9681 6.27684 12.972 6.60999 12.7707 6.82114L12.5596 7.03209L11.8026 6.27264L12.0113 6.06168ZM10.0298 6.86371L9.43874 6.27264L9.64989 6.06168C9.85951 5.85206 10.1995 5.85206 10.4093 6.06168L10.6203 6.27264L10.0298 6.86371ZM23.6975 11.6682C23.5751 12.1234 23.3298 12.5363 22.9886 12.8614C22.3817 13.3918 21.5023 13.4708 20.8107 13.0569C19.8265 12.5816 19.2062 11.4901 18.9139 9.72053C18.8378 9.17547 18.7927 8.6266 18.7788 8.07658C18.702 6.35741 18.6224 4.57943 16.8406 3.45057C15.8859 2.88795 14.7908 2.60845 13.6831 2.64434C13.0025 2.64892 12.3236 2.71861 11.6564 2.85282C12.2908 2.35033 12.9928 1.9393 13.7415 1.63212C17.2244 0.225472 19.758 0.71631 22.2207 3.27321C24.4896 5.62927 24.435 9.26711 23.6984 11.6682H23.6975Z" fill="#332E4C"/>
</g>
<defs>
<clipPath id="clip0_1377_2105">
<rect width="25" height="25" fill="white"/>
</clipPath>
</defs>
</svg>
