<svg width="1440" height="258" viewBox="0 0 1440 258" fill="none" xmlns="http://www.w3.org/2000/svg">
<path d="M57.472 152.675C66.8008 157.434 76.2231 161.922 85.7649 166.755C194.558 221.246 307.091 277.341 429.758 246.017C502.881 227.359 571.71 178.502 637.991 131.478C692.852 92.5634 749.647 52.2076 809.326 28.265C928.495 -19.0812 1052.45 3.52315 1146.81 28.8178C1170.89 35.0876 1195.13 42.3142 1218.6 48.9747C1301.04 72.8391 1385.82 97.519 1474.1 97.7353C1478.1 97.9179 1482.19 97.831 1486.07 97.6699L1493.31 100.191C1487.02 100.419 1480.52 100.573 1473.8 100.653C1385.31 100.362 1300.01 75.8034 1217.87 51.7438C1194.49 44.8138 1170.17 37.8567 1146.08 31.5868C1051.84 6.63585 928.409 -16.0897 809.759 31.1353C750.481 54.613 693.686 94.9689 639.038 133.957C572.451 181.177 503.527 230.303 429.979 248.813C306.579 280.184 193.833 224.015 84.6139 169.375C75.0722 164.543 65.6495 160.054 56.3208 155.296C13.1357 133.917 -35.0597 113.212 -85.5499 100.47L-84.6117 97.7747C-34.0277 110.247 14.287 131.297 57.472 152.675Z" fill="white" fill-opacity="0.2"/>
</svg>
