<svg width="967" height="314" viewBox="0 0 967 314" fill="none" xmlns="http://www.w3.org/2000/svg">
<path d="M110.287 243.363C201.162 286.964 301.353 245.799 369.415 203.659C404.396 181.981 438.427 156.161 471.508 131.316C514.094 99.1635 558.391 65.7931 604.779 40.9479C650.027 16.8335 765.047 -31.3953 853.831 43.8709C904.783 87.2281 940.334 167.122 959.346 281.361C961.057 292.079 962.768 303.04 964.289 314.001H966.19C964.669 303.04 962.958 291.835 961.247 280.874C942.235 165.904 906.494 85.523 854.972 41.9222C765.427 -34.0746 649.837 14.3977 604.209 38.7557C557.63 63.6008 513.523 96.9713 470.747 129.124C437.857 153.969 403.826 179.788 368.845 201.467C301.163 243.363 201.542 284.284 111.237 241.17C78.9174 225.581 49.4494 200.249 21.1221 175.648C9.33488 165.417 -2.64244 154.943 -15 145.2V148.123C-3.02267 157.623 8.57442 167.609 19.9814 177.596C48.4988 202.441 77.9669 227.774 110.287 243.363Z" fill="white" fill-opacity="0.08"/>
</svg>
